<svg width="167" height="360" viewBox="0 0 167 360" fill="none" xmlns="http://www.w3.org/2000/svg">
<path d="M-69.514 65.7468C-56.0955 51.7113 -42.3134 37.9696 -28.4586 24.3259C-21.5857 17.4387 -11.2582 8.03824 -4.27625 1.24901L-1.65801 -1.29696C-0.67617 -2.17825 0.269302 -3.12483 1.32387 -3.94084C3.36028 -5.70343 5.57848 -7.27018 7.86945 -8.73901C12.5241 -11.6114 17.6151 -13.9289 22.997 -15.5609C28.379 -17.1929 34.0155 -18.2048 39.761 -18.4659L55.3613 -18.8902L86.1984 -19.3472C106.744 -19.7389 127.326 -19.8042 147.872 -19.9021L167 -20L153.509 -7.75979L134.636 9.34386L115.544 26.2843C102.853 37.578 90.1257 48.8716 77.2164 59.9694C64.3797 71.1324 51.5431 82.2955 38.4883 93.2954L18.9606 109.812L-13.1128 137.034L-16.3856 139.743L-19.2584 137.099C-27.8404 129.167 -36.1678 121.007 -44.6407 112.945C-53.0046 104.818 -61.332 96.6247 -69.514 88.334C-59.9501 95.3517 -50.4954 102.467 -41.1134 109.648C-31.8041 116.895 -22.3857 124.043 -13.1855 131.42L-19.3311 131.485L11.2877 102.924L29.6881 85.3964C41.9065 73.6784 54.3795 62.1563 66.8161 50.6342C79.18 39.0468 91.7621 27.6552 104.344 16.231L123.217 -0.905272L142.309 -17.8131L147.909 -5.67079C127.363 -5.76871 106.781 -5.80136 86.2347 -6.22568L55.3977 -6.68265L40.161 -7.0417C35.6155 -7.07434 31.0335 -6.48681 26.5971 -5.40967C22.1606 -4.29989 17.906 -2.63522 13.9423 -0.480944C11.9786 0.596195 10.015 1.73862 8.19674 3.07688C7.25126 3.69705 6.41486 4.41514 5.50575 5.10059L2.66933 7.45071C-4.89446 13.6851 -15.622 22.7591 -23.2948 28.9282C-38.5315 41.3643 -53.8409 53.735 -69.514 65.7468Z" fill="white" fill-opacity="0.2"/>
<path d="M-110.815 104.244L-211.451 204.295L-209.229 199.489L-208.646 349.696L-216.841 342.372L-142.321 342.176L-150.734 349.729L-151.536 310.755L-151.9 291.268L-152.118 281.361C-152.191 279.628 -152.191 277.895 -152.118 276.129C-152.082 274.364 -152.009 272.598 -151.791 270.8C-150.589 256.609 -145.781 242.223 -136.967 229.766C-132.523 223.586 -127.169 217.93 -121.086 213.025C-118.063 210.573 -114.822 208.252 -111.434 206.159C-109.722 205.113 -107.974 204.099 -106.153 203.151C-105.242 202.66 -104.332 202.203 -103.349 201.745C-102.329 201.255 -101.564 200.895 -100.034 200.306L-92.9316 197.527L-87.5411 202.889C-68.7106 221.526 -50.0987 240.327 -31.5231 259.16L24.1306 315.79L37.7162 329.784C41.7956 333.74 46.1663 337.043 50.2456 338.579C52.3217 339.331 54.1793 339.724 56.5467 339.789L66.8179 339.887L87.8337 340.083C101.856 340.149 115.843 340.541 129.865 340.803L140.392 341.032L142.759 341.097C142.067 341.13 141.084 341.359 140.392 341.816C138.898 342.732 138.243 344.04 138.352 345.576C138.425 346.328 138.789 347.146 139.226 347.669C139.299 347.767 139.554 348.029 139.481 347.93L139.044 347.473L138.17 346.59L134.71 343.026L127.826 335.931C91.0753 297.97 53.9972 260.271 17.866 221.788C-18.156 183.239 -53.8866 144.461 -87.8689 104.31C-47.6584 139.556 -9.19609 176.144 28.9748 212.993C67.0728 249.907 104.188 287.573 141.63 325.01L148.623 332.04L152.12 335.539L152.994 336.421L153.431 336.846C153.649 337.043 154.159 337.631 154.487 338.023C155.944 339.854 156.927 342.176 157.11 344.497C157.474 349.14 155.033 353.652 150.59 356.268C148.405 357.576 145.709 358.295 143.233 358.328L140.355 358.393L129.829 358.622C115.806 358.884 101.82 359.309 87.7973 359.342L66.7815 359.538L56.0368 359.636C51.4112 359.636 46.312 358.753 41.8684 357.184C32.9449 353.914 26.4253 348.813 20.9983 343.615L6.97556 329.163C-29.6292 291.3 -67.108 253.863 -104.004 216.066L-91.5112 218.649C-91.6569 218.714 -92.531 219.074 -93.1138 219.336C-93.7694 219.63 -94.425 219.957 -95.0806 220.284C-96.3918 220.938 -97.703 221.69 -99.0142 222.474C-101.6 224.044 -104.113 225.777 -106.481 227.641C-111.252 231.368 -115.368 235.684 -118.937 240.359C-126.113 249.711 -130.41 260.795 -131.904 272.5C-132.122 273.971 -132.232 275.443 -132.341 276.914C-132.487 278.385 -132.523 279.889 -132.559 281.426C-132.705 284.369 -132.705 287.835 -132.778 291.039L-133.142 310.591L-133.944 349.696V357.249L-142.357 357.216L-216.805 357.02H-225L-224.964 349.663L-224.381 199.456V196.481L-222.159 194.683L-110.815 104.244Z" fill="white" fill-opacity="0.2"/>
</svg>
