<svg width="279" height="483" viewBox="0 0 279 483" fill="none" xmlns="http://www.w3.org/2000/svg">
<path d="M-10.6089 82.5922C5.82182 63.5078 22.6979 44.8229 39.663 26.2711C48.0787 16.9064 60.7246 4.12435 69.274 -5.10715L72.48 -8.56897C73.6822 -9.76729 74.84 -11.0544 76.1313 -12.1639C78.6248 -14.5606 81.341 -16.6909 84.1463 -18.6881C89.8458 -22.5938 96.0797 -25.7449 102.67 -27.964C109.26 -30.1831 116.162 -31.559 123.197 -31.914L142.3 -32.491L180.059 -33.1124C205.217 -33.6449 230.42 -33.7337 255.578 -33.8669L279 -34L262.48 -17.3567L239.37 5.89964L215.993 28.934C200.453 44.2903 184.868 59.6465 169.061 74.7365C153.343 89.9152 137.624 105.094 121.639 120.051L97.7273 142.508L58.4537 179.523L54.4462 183.207L50.9285 179.612C40.4199 168.827 30.2231 157.731 19.8481 146.769C9.60667 135.718 -0.590187 124.578 -10.6089 113.305C1.10187 122.847 12.6791 132.522 24.1673 142.286C35.5664 152.139 47.0991 161.859 58.3646 171.889L50.8395 171.978L88.3319 133.144L110.863 109.31C125.824 93.3771 141.097 77.7101 156.326 62.0432C171.465 46.2875 186.872 30.7981 202.279 15.2643L225.389 -8.03638L248.766 -31.0264L255.623 -14.5162C230.465 -14.6493 205.262 -14.6937 180.104 -15.2707L142.344 -15.892L123.687 -16.3802C118.121 -16.4246 112.51 -15.6257 107.078 -14.1611C101.646 -12.6521 96.4359 -10.3886 91.5824 -7.45942C89.1779 -5.9948 86.7734 -4.44142 84.547 -2.62175C83.3893 -1.77849 82.3651 -0.802078 81.2519 0.129948L77.7788 3.32547C68.517 11.8025 55.3813 24.1407 45.9859 32.529C27.3288 49.4386 8.58254 66.2595 -10.6089 82.5922Z" fill="white" fill-opacity="0.2"/>
<path d="M-61.1818 134.938L-184.409 270.98L-181.689 264.445L-180.975 468.686L-191.01 458.727L-99.76 458.46L-110.062 468.73L-111.044 415.736L-111.49 389.239L-111.757 375.768C-111.846 373.412 -111.846 371.056 -111.757 368.655C-111.713 366.254 -111.623 363.853 -111.356 361.408C-109.884 342.113 -103.997 322.552 -93.2039 305.613C-87.7629 297.211 -81.2068 289.519 -73.7588 282.851C-70.057 279.516 -66.0877 276.36 -61.94 273.515C-59.8438 272.092 -57.7031 270.714 -55.4731 269.424C-54.3581 268.758 -53.2432 268.135 -52.039 267.513C-50.7902 266.846 -49.8536 266.357 -47.9805 265.557L-39.2836 261.778L-32.683 269.069C-9.62521 294.41 13.1649 319.973 35.9105 345.581L104.058 422.583L120.693 441.611C125.689 446.99 131.04 451.48 136.035 453.57C138.578 454.593 140.852 455.126 143.751 455.215L156.328 455.348L182.062 455.615C199.232 455.704 216.358 456.238 233.529 456.593L246.418 456.904L249.317 456.993C248.47 457.038 247.266 457.349 246.418 457.971C244.59 459.216 243.787 460.995 243.921 463.084C244.01 464.107 244.456 465.218 244.991 465.929C245.08 466.063 245.393 466.418 245.303 466.285L244.768 465.663L243.698 464.462L239.461 459.616L231.032 449.969C186.031 398.353 140.629 347.093 96.3869 294.766C52.2784 242.349 8.5266 189.622 -33.0844 135.027C16.153 182.953 63.2497 232.702 109.99 282.806C156.64 333 202.087 384.215 247.935 435.12L256.498 444.678L260.779 449.435L261.85 450.636L262.385 451.214C262.652 451.48 263.277 452.281 263.678 452.814C265.462 455.304 266.666 458.46 266.889 461.617C267.335 467.93 264.347 474.065 258.906 477.622C256.23 479.4 252.93 480.378 249.897 480.423L246.374 480.512L233.484 480.823C216.314 481.179 199.188 481.757 182.017 481.801L156.283 482.068L143.127 482.201C137.463 482.201 131.219 481.001 125.778 478.867C114.851 474.421 106.868 467.485 100.222 460.417L83.0517 440.766C38.2296 389.284 -7.66287 338.379 -52.8418 286.985L-37.5443 290.498C-37.7227 290.586 -38.7931 291.075 -39.5067 291.431C-40.3094 291.831 -41.1122 292.276 -41.915 292.72C-43.5205 293.61 -45.1261 294.632 -46.7317 295.699C-49.8982 297.833 -52.9756 300.189 -55.8745 302.724C-61.717 307.792 -66.7567 313.66 -71.1274 320.018C-79.9134 332.733 -85.1761 347.804 -87.0047 363.72C-87.2723 365.721 -87.4061 367.721 -87.5399 369.722C-87.7183 371.723 -87.7629 373.768 -87.8075 375.857C-87.9859 379.858 -87.9859 384.571 -88.0751 388.928L-88.5211 415.514L-89.5022 468.686V478.956L-99.8046 478.911L-190.965 478.644H-201L-200.955 468.641L-200.242 264.401V260.355L-197.521 257.91L-61.1818 134.938Z" fill="white" fill-opacity="0.2"/>
</svg>
