<svg width="62" height="58" viewBox="0 0 62 58" fill="none" xmlns="http://www.w3.org/2000/svg">
<path d="M28.0117 7.00276C28.9985 5.85651 30.012 4.73426 31.0308 3.62C31.5362 3.05754 32.2957 2.28982 32.8091 1.73536L33.0017 1.52744C33.0739 1.45546 33.1434 1.37816 33.2209 1.31152C33.3707 1.16757 33.5338 1.03962 33.7023 0.919662C34.0446 0.685081 34.419 0.495818 34.8147 0.362533C35.2105 0.229249 35.625 0.146613 36.0475 0.125287L37.1947 0.0906333L39.4624 0.0533137C40.9733 0.0213255 42.4869 0.0159941 43.9977 0.00799706L45.4043 0L44.4122 0.999632L43.0244 2.39645L41.6204 3.77994C40.6872 4.70227 39.7512 5.6246 38.8019 6.53093C37.8579 7.4426 36.9139 8.35426 35.9539 9.2526L34.5179 10.6014L32.1593 12.8246L31.9186 13.0459L31.7074 12.8299C31.0763 12.1822 30.4639 11.5158 29.8408 10.8573C29.2258 10.1936 28.6134 9.5245 28.0117 8.84741C28.715 9.42054 29.4103 10.0017 30.1002 10.5881C30.7848 11.1799 31.4774 11.7637 32.154 12.3661L31.702 12.3715L33.9537 10.039L35.3068 8.6075C36.2053 7.65052 37.1225 6.70953 38.0371 5.76855C38.9463 4.82223 39.8715 3.8919 40.7968 2.95891L42.1847 1.55943L43.5886 0.178601L44.0004 1.17024C42.4895 1.16224 40.976 1.15957 39.4651 1.12492L37.1974 1.0876L36.0769 1.05828C35.7427 1.05561 35.4057 1.10359 35.0795 1.19156C34.7532 1.2822 34.4404 1.41815 34.1489 1.59408C34.0045 1.68205 33.8601 1.77535 33.7264 1.88464C33.6568 1.93529 33.5953 1.99393 33.5285 2.04991L33.3199 2.24184C32.7637 2.75099 31.9748 3.49205 31.4106 3.99586C30.2901 5.01149 29.1643 6.02179 28.0117 7.00276Z" fill="white"/>
<path d="M24.9791 10.047L17.5905 18.204L17.7536 17.8121L17.7964 30.0583L17.1947 29.4612L22.666 29.4452L22.0483 30.061L21.9894 26.8835L21.9627 25.2947L21.9467 24.487C21.9413 24.3457 21.9413 24.2045 21.9467 24.0605C21.9493 23.9166 21.9547 23.7726 21.9707 23.626C22.059 22.4691 22.412 21.2962 23.0591 20.2806C23.3854 19.7768 23.7784 19.3156 24.225 18.9157C24.447 18.7158 24.685 18.5265 24.9337 18.3559C25.0594 18.2706 25.1877 18.188 25.3214 18.1107C25.3883 18.0707 25.4551 18.0334 25.5273 17.9961C25.6022 17.9561 25.6584 17.9268 25.7707 17.8788L26.2921 17.6522L26.6879 18.0894C28.0704 19.6088 29.4369 21.1416 30.8007 22.677L34.8868 27.294L35.8843 28.4349C36.1838 28.7575 36.5047 29.0267 36.8042 29.152C36.9566 29.2133 37.093 29.2453 37.2668 29.2506L38.0209 29.2586L39.5639 29.2746C40.5935 29.2799 41.6203 29.3119 42.6499 29.3332L43.4227 29.3519L43.5965 29.3572C43.5457 29.3599 43.4735 29.3786 43.4227 29.4159C43.3131 29.4905 43.2649 29.5971 43.273 29.7224C43.2783 29.7837 43.305 29.8504 43.3371 29.893C43.3425 29.901 43.3612 29.9224 43.3559 29.9144L43.3238 29.877L43.2596 29.8051L43.0055 29.5145L42.5001 28.9361C39.8019 25.8412 37.0796 22.7677 34.4269 19.6301C31.7822 16.4873 29.1588 13.3258 26.6638 10.0523C29.6161 12.9259 32.44 15.9088 35.2425 18.9131C38.0397 21.9226 40.7646 24.9935 43.5136 28.0457L44.0271 28.6188L44.2838 28.9041L44.348 28.976L44.38 29.0107C44.3961 29.0267 44.4335 29.0747 44.4576 29.1067C44.5646 29.2559 44.6368 29.4452 44.6501 29.6345C44.6769 30.013 44.4977 30.3809 44.1715 30.5941C44.011 30.7007 43.8131 30.7594 43.6313 30.762L43.42 30.7674L42.6472 30.786C41.6177 30.8074 40.5908 30.842 39.5612 30.8447L38.0183 30.8607L37.2294 30.8687C36.8898 30.8687 36.5154 30.7967 36.1891 30.6687C35.534 30.4022 35.0553 29.9863 34.6569 29.5625L33.6273 28.3843C30.9398 25.2974 28.1881 22.2452 25.4792 19.1636L26.3964 19.3742C26.3857 19.3796 26.3216 19.4089 26.2788 19.4302C26.2306 19.4542 26.1825 19.4809 26.1344 19.5075C26.0381 19.5608 25.9418 19.6221 25.8456 19.6861C25.6557 19.8141 25.4712 19.9554 25.2974 20.1073C24.9471 20.4112 24.6449 20.7631 24.3828 21.1443C23.856 21.9066 23.5405 22.8103 23.4308 23.7646C23.4148 23.8846 23.4067 24.0045 23.3987 24.1245C23.388 24.2444 23.3854 24.3671 23.3827 24.4924C23.372 24.7323 23.372 25.0148 23.3666 25.2761L23.3399 26.8701L23.2811 30.0583V30.6741L22.6633 30.6714L17.1974 30.6554H16.5957L16.5984 30.0556L16.6412 17.8095V17.5669L16.8043 17.4203L24.9791 10.047Z" fill="white"/>
<path d="M59.6414 37.141C59.1065 37.141 58.6092 37.2796 58.1626 37.5542C57.7347 37.8154 57.4272 38.1833 57.2427 38.6444L53.9909 46.98L50.7017 38.6897C50.6161 38.4445 50.5011 38.2392 50.3487 38.0553C50.1909 37.8687 50.0064 37.7061 49.7952 37.5755C49.6 37.4529 49.3834 37.3542 49.1587 37.2796C48.8967 37.1943 48.4608 37.141 48.2067 37.141H45.9604L51.9131 50.7839L49.1828 57.1629C49.0999 57.3522 49.1186 57.5575 49.2309 57.7281C49.3432 57.8987 49.5278 57.9973 49.7337 57.9973H51.167C51.4237 57.9973 51.6858 57.96 51.9452 57.8827C52.2019 57.808 52.4426 57.7014 52.6592 57.5628C52.8704 57.4295 53.0576 57.2642 53.2181 57.0723C53.3759 56.883 53.4989 56.6698 53.5871 56.4325L61.9973 37.1383H59.6414V37.141Z" fill="white"/>
<path d="M43.1018 40.553C43.2997 40.2784 43.4548 39.9772 43.5618 39.6626C43.6688 39.3507 43.7222 39.0202 43.7222 38.6817V37.1436H31.8918V40.561H38.4462L37.6412 41.6192C36.8764 42.6242 36.0795 43.7171 35.272 44.866C34.4563 46.023 33.5605 47.2438 32.6085 48.494C31.8544 49.4484 31.7982 51.2157 31.8196 52.0794H43.035C43.4976 52.0794 43.872 51.7062 43.872 51.245V48.662H37.1305L43.1018 40.553Z" fill="white"/>
<path d="M22.4413 49.0912C21.5375 49.0912 20.6684 48.6967 20.0613 48.0063C20.056 48.0063 20.0319 47.985 20.0105 47.9583C19.8528 47.793 19.7137 47.5745 19.596 47.3079C19.3741 46.8681 19.2618 46.3989 19.2618 45.9164L19.2698 45.8044C19.2591 45.7058 19.2511 45.5272 19.2511 45.3353V37.141H15.4966V45.3353C15.4966 46.3882 15.6276 47.3532 15.887 48.2009C16.1411 49.0273 16.5074 49.7337 16.9754 50.3041C17.4353 50.8639 18.0076 51.3038 18.6761 51.6103C19.3206 51.9062 20.0694 52.0635 20.901 52.0741C21.3182 52.0795 21.738 52.0368 22.1418 51.9302C22.6392 51.8022 23.1018 51.6103 23.5137 51.3624C23.864 51.1518 24.3694 50.6986 24.578 50.4641C25.2465 49.7123 25.4123 49.1259 25.415 49.1206L25.5968 48.4515L25.8749 49.8963C26.252 51.3784 27.0542 52.0715 28.394 52.0715H29.0759C29.2497 52.0715 29.3888 51.9329 29.3888 51.7596V37.1383H25.6343V45.7511C25.6343 45.8018 25.6316 45.8578 25.6236 45.9191C25.6262 47.6678 24.1982 49.0912 22.4413 49.0912Z" fill="white"/>
<path d="M10.0307 37.1463C8.81397 37.1463 7.68816 37.7514 7.01695 38.7617L3.67695 43.8078V32.9905H0V51.7542H3.67695V47.1879L5.04076 45.5139L8.42088 50.2775C9.07871 51.2051 10.151 51.7569 11.2876 51.7569H12.9562C13.0846 51.7569 13.1942 51.6903 13.2531 51.5756C13.3119 51.461 13.3039 51.3331 13.229 51.2291L7.68281 43.424L13.2477 37.1463H10.0307Z" fill="white"/>
<path d="M10.2231 56.9871L10.9746 55.3157C11.0147 55.2251 11.0869 55.1718 11.1885 55.1718H11.2046C11.3062 55.1718 11.3757 55.2277 11.4158 55.3157L12.1672 56.9871C12.1806 57.0137 12.1886 57.0377 12.1886 57.0617C12.1886 57.1577 12.1164 57.2323 12.0202 57.2323C11.9373 57.2323 11.8784 57.1844 11.8463 57.1097L11.6805 56.7312H10.6965L10.5253 57.1204C10.4959 57.1923 10.4344 57.2323 10.3595 57.2323C10.2659 57.2323 10.1937 57.1604 10.1937 57.0671C10.1991 57.0404 10.2098 57.0164 10.2231 56.9871ZM11.5468 56.4166L11.1912 55.6009L10.8355 56.4166H11.5468Z" fill="white"/>
<path d="M12.6326 55.361C12.6326 55.2624 12.7101 55.1851 12.8117 55.1851C12.9107 55.1851 12.9882 55.2624 12.9882 55.361V56.8938H13.9055C13.9964 56.8938 14.0686 56.9657 14.0686 57.0564C14.0686 57.147 13.9964 57.219 13.9055 57.219H12.8117C12.7101 57.219 12.6326 57.1417 12.6326 57.0404V55.361Z" fill="white"/>
<path d="M14.4803 57.0378V55.3771C14.4803 55.2758 14.5579 55.1985 14.6595 55.1985H15.8361C15.9217 55.1985 15.9939 55.2705 15.9939 55.3558C15.9939 55.4464 15.9217 55.513 15.8361 55.513H14.836V56.0382H15.7051C15.7933 56.0382 15.8656 56.1101 15.8656 56.2008C15.8656 56.2861 15.7933 56.3554 15.7051 56.3554H14.836V56.8965H15.8522C15.9378 56.8965 16.01 56.9685 16.01 57.0538C16.01 57.1444 15.9378 57.2137 15.8522 57.2137H14.6595C14.5579 57.2164 14.4803 57.1391 14.4803 57.0378Z" fill="white"/>
<path d="M16.3844 56.2141V56.2088C16.3844 55.6437 16.8176 55.1665 17.4273 55.1665C17.7322 55.1665 17.9327 55.2385 18.1172 55.3718C18.152 55.3984 18.1894 55.4464 18.1894 55.5157C18.1894 55.6117 18.1119 55.6916 18.013 55.6916C17.9675 55.6916 17.9327 55.673 17.9033 55.6517C17.7723 55.5557 17.6306 55.4944 17.4113 55.4944C17.0396 55.4944 16.7534 55.8196 16.7534 56.2061V56.2115C16.7534 56.6273 17.0289 56.9312 17.4407 56.9312C17.6306 56.9312 17.8044 56.8699 17.9301 56.7792V56.4007H17.5316C17.446 56.4007 17.3738 56.3341 17.3738 56.2488C17.3738 56.1635 17.446 56.0915 17.5316 56.0915H18.0959C18.1975 56.0915 18.275 56.1688 18.275 56.2701V56.8086C18.275 56.9099 18.2349 56.9818 18.152 57.0325C17.9782 57.1471 17.7348 57.2511 17.4327 57.2511C16.8016 57.2511 16.3844 56.8032 16.3844 56.2141Z" fill="white"/>
<path d="M18.7991 55.3771C18.7991 55.2758 18.8766 55.1985 18.9782 55.1985H19.7003C19.9543 55.1985 20.1549 55.2731 20.2832 55.4011C20.3902 55.5104 20.4517 55.6597 20.4517 55.8356V55.8409C20.4517 56.1635 20.2645 56.3607 19.9917 56.4434L20.3795 56.9312C20.4143 56.9738 20.4383 57.0112 20.4383 57.0671C20.4383 57.1658 20.3554 57.2324 20.2672 57.2324C20.187 57.2324 20.1335 57.1951 20.0934 57.1391L19.604 56.5127H19.1574V57.0538C19.1574 57.1524 19.0799 57.2297 18.9809 57.2297C18.8793 57.2297 18.8017 57.1524 18.8017 57.0538V55.3771H18.7991ZM19.6762 56.2008C19.9302 56.2008 20.0934 56.0675 20.0934 55.8622V55.8569C20.0934 55.641 19.9383 55.521 19.6735 55.521H19.1547V56.1981H19.6762V56.2008Z" fill="white"/>
<path d="M20.9679 55.361C20.9679 55.2624 21.0454 55.1851 21.1471 55.1851C21.246 55.1851 21.3236 55.2624 21.3236 55.361V57.0564C21.3236 57.1551 21.246 57.2324 21.1471 57.2324C21.0454 57.2324 20.9679 57.1551 20.9679 57.0564V55.361ZM21.0508 54.9852C21.0508 54.9639 21.0615 54.9399 21.0749 54.9212L21.2407 54.668C21.2727 54.6173 21.3182 54.5853 21.3797 54.5853C21.4733 54.5853 21.5883 54.644 21.5883 54.6973C21.5883 54.7293 21.5696 54.7586 21.5402 54.7826L21.3476 54.9665C21.2781 55.0305 21.2219 55.0438 21.1417 55.0438C21.0882 55.0465 21.0508 55.0225 21.0508 54.9852Z" fill="white"/>
<path d="M21.8048 56.9871L22.5562 55.3157C22.5964 55.2251 22.6686 55.1718 22.7702 55.1718H22.7862C22.8878 55.1718 22.9574 55.2277 22.9975 55.3157L23.7489 56.9871C23.7623 57.0137 23.7703 57.0377 23.7703 57.0617C23.7703 57.1577 23.6981 57.2323 23.6018 57.2323C23.5189 57.2323 23.4601 57.1844 23.428 57.1097L23.2622 56.7312H22.2781L22.107 57.1204C22.0776 57.1923 22.0161 57.2323 21.9412 57.2323C21.8476 57.2323 21.7754 57.1604 21.7754 57.0671C21.7834 57.0404 21.7914 57.0164 21.8048 56.9871ZM23.1312 56.4166L22.7755 55.6009L22.4199 56.4166H23.1312Z" fill="white"/>
<path d="M25.1395 57.0378V55.3771C25.1395 55.2758 25.2171 55.1985 25.3187 55.1985H26.4953C26.5809 55.1985 26.6531 55.2705 26.6531 55.3558C26.6531 55.4464 26.5809 55.513 26.4953 55.513H25.4952V56.0382H26.3643C26.4525 56.0382 26.5247 56.1101 26.5247 56.2008C26.5247 56.2861 26.4525 56.3554 26.3643 56.3554H25.4952V56.8965H26.5114C26.5969 56.8965 26.6691 56.9685 26.6691 57.0538C26.6691 57.1444 26.5969 57.2137 26.5114 57.2137H25.3187C25.2171 57.2164 25.1395 57.1391 25.1395 57.0378Z" fill="white"/>
<path d="M27.1344 55.3663C27.1344 55.2677 27.2119 55.1877 27.3136 55.1877H27.351C27.4366 55.1877 27.4874 55.2304 27.5355 55.2917L28.549 56.5979V55.3583C28.549 55.2624 28.6266 55.1851 28.7228 55.1851C28.8218 55.1851 28.8993 55.2624 28.8993 55.3583V57.0537C28.8993 57.1523 28.8245 57.2296 28.7255 57.2296H28.7121C28.6292 57.2296 28.5758 57.187 28.5276 57.123L27.4874 55.7795V57.059C27.4874 57.155 27.4098 57.2323 27.3136 57.2323C27.2146 57.2323 27.1371 57.155 27.1371 57.059V55.3663H27.1344Z" fill="white"/>
<path d="M30.3113 56.2141V56.2088C30.3113 55.6357 30.7418 55.1665 31.3542 55.1665C31.6671 55.1665 31.873 55.2598 32.0468 55.3958C32.0842 55.4251 32.1163 55.4731 32.1163 55.537C32.1163 55.6357 32.0388 55.7103 31.9398 55.7103C31.8917 55.7103 31.8569 55.6943 31.8329 55.6756C31.6938 55.5637 31.5441 55.4944 31.3488 55.4944C30.9638 55.4944 30.6803 55.8116 30.6803 56.2061V56.2114C30.6803 56.606 30.9611 56.9259 31.3488 56.9259C31.5628 56.9259 31.7072 56.8565 31.8543 56.7313C31.881 56.7073 31.9184 56.6913 31.9612 56.6913C32.0521 56.6913 32.1297 56.7659 32.1297 56.8565C32.1297 56.9125 32.103 56.9552 32.0709 56.9845C31.881 57.1524 31.6644 57.2564 31.3355 57.2564C30.7525 57.2511 30.3113 56.7926 30.3113 56.2141Z" fill="white"/>
<path d="M32.4774 56.9871L33.2289 55.3157C33.269 55.2251 33.3412 55.1718 33.4428 55.1718H33.4588C33.5604 55.1718 33.63 55.2277 33.6701 55.3157L34.4215 56.9871C34.4349 57.0137 34.4429 57.0377 34.4429 57.0617C34.4429 57.1577 34.3707 57.2323 34.2744 57.2323C34.1915 57.2323 34.1327 57.1844 34.1006 57.1097L33.9348 56.7312H32.9507L32.7796 57.1204C32.7502 57.1923 32.6887 57.2323 32.6138 57.2323C32.5202 57.2323 32.448 57.1604 32.448 57.0671C32.456 57.0404 32.464 57.0164 32.4774 56.9871ZM33.8038 56.4166L33.4481 55.6009L33.0925 56.4166H33.8038Z" fill="white"/>
<path d="M34.8867 55.3771C34.8867 55.2758 34.9643 55.1985 35.0659 55.1985H35.6408C36.2773 55.1985 36.7158 55.633 36.7158 56.2008V56.2061C36.7158 56.7739 36.2773 57.2164 35.6408 57.2164H35.0659C34.9643 57.2164 34.8867 57.1391 34.8867 57.0378V55.3771ZM35.6408 56.8939C36.066 56.8939 36.3441 56.6086 36.3441 56.2141V56.2088C36.3441 55.8143 36.066 55.5237 35.6408 55.5237H35.2424V56.8965H35.6408V56.8939Z" fill="white"/>
<path d="M36.9885 56.9871L37.74 55.3157C37.7801 55.2251 37.8523 55.1718 37.9539 55.1718H37.9726C38.0742 55.1718 38.1438 55.2277 38.1839 55.3157L38.9353 56.9871C38.9487 57.0137 38.9567 57.0377 38.9567 57.0617C38.9567 57.1577 38.8845 57.2323 38.7882 57.2323C38.7053 57.2323 38.6465 57.1844 38.6144 57.1097L38.4486 56.7312H37.4645L37.2934 57.1204C37.264 57.1923 37.2025 57.2323 37.1276 57.2323C37.034 57.2323 36.9618 57.1604 36.9618 57.0671C36.9645 57.0404 36.9752 57.0164 36.9885 56.9871ZM38.3122 56.4166L37.9566 55.6009L37.6009 56.4166H38.3122Z" fill="white"/>
<path d="M40.3232 55.3771C40.3232 55.2758 40.4008 55.1985 40.5024 55.1985H41.1228C41.5961 55.1985 41.893 55.4677 41.893 55.8729V55.8782C41.893 56.3314 41.5293 56.5686 41.0827 56.5686H40.6816V57.0565C40.6816 57.1551 40.604 57.2324 40.5051 57.2324C40.4035 57.2324 40.3259 57.1551 40.3259 57.0565V55.3771H40.3232ZM41.0907 56.2488C41.3608 56.2488 41.5266 56.0995 41.5266 55.8889V55.8836C41.5266 55.6463 41.3555 55.5237 41.0907 55.5237H40.6762V56.2514H41.0907V56.2488Z" fill="white"/>
<path d="M42.0348 56.9871L42.7862 55.3157C42.8263 55.2251 42.8985 55.1718 43.0002 55.1718H43.0162C43.1178 55.1718 43.1873 55.2277 43.2275 55.3157L43.9789 56.9871C43.9923 57.0137 44.0003 57.0377 44.0003 57.0617C44.0003 57.1577 43.9281 57.2323 43.8318 57.2323C43.7489 57.2323 43.6901 57.1844 43.658 57.1097L43.4922 56.7312H42.5081L42.337 57.1204C42.3076 57.1923 42.246 57.2323 42.1712 57.2323C42.0776 57.2323 42.0054 57.1604 42.0054 57.0671C42.0107 57.0404 42.0187 57.0164 42.0348 56.9871ZM43.3585 56.4166L43.0028 55.6009L42.6472 56.4166H43.3585Z" fill="white"/>
<path d="M44.3665 56.9924C44.3264 56.9631 44.297 56.9151 44.297 56.8565C44.297 56.7632 44.3719 56.6912 44.4655 56.6912C44.5136 56.6912 44.5457 56.7045 44.5698 56.7232C44.7382 56.8565 44.9174 56.9311 45.1367 56.9311C45.356 56.9311 45.495 56.8271 45.495 56.6779V56.6725C45.495 56.5286 45.4148 56.4513 45.0377 56.3633C44.6072 56.2594 44.3639 56.1341 44.3639 55.7609V55.7555C44.3639 55.409 44.6527 55.1718 45.0565 55.1718C45.3105 55.1718 45.5164 55.2384 45.6982 55.3584C45.7384 55.3823 45.7758 55.4303 45.7758 55.4996C45.7758 55.5929 45.7009 55.6649 45.6073 55.6649C45.5726 55.6649 45.5431 55.6569 45.5137 55.6382C45.3586 55.537 45.2062 55.4863 45.0484 55.4863C44.8398 55.4863 44.7195 55.5929 44.7195 55.7262V55.7315C44.7195 55.8862 44.8131 55.9555 45.2035 56.0488C45.6314 56.1527 45.8507 56.3047 45.8507 56.6405V56.6459C45.8507 57.0244 45.5538 57.2483 45.1287 57.2483C44.8532 57.2457 44.5912 57.1604 44.3665 56.9924Z" fill="white"/>
<path d="M46.2385 56.2141V56.2088C46.2385 55.641 46.6771 55.1665 47.3002 55.1665C47.9232 55.1665 48.3565 55.6357 48.3565 56.2035V56.2088C48.3565 56.7766 47.9179 57.2537 47.2948 57.2537C46.6717 57.2511 46.2385 56.7819 46.2385 56.2141ZM47.9821 56.2141V56.2088C47.9821 55.8169 47.6959 55.4917 47.2948 55.4917C46.8937 55.4917 46.6129 55.8116 46.6129 56.2035V56.2088C46.6129 56.6006 46.899 56.9232 47.3002 56.9232C47.7013 56.9232 47.9821 56.606 47.9821 56.2141Z" fill="white"/>
</svg>
