<svg width="164" height="155" viewBox="0 0 164 155" fill="none" xmlns="http://www.w3.org/2000/svg">
<path d="M74.0953 19.1941C76.7055 16.1506 79.3863 13.1709 82.0814 10.2123C83.4183 8.71889 85.4271 6.68046 86.7853 5.20827L87.2946 4.6562C87.4855 4.4651 87.6695 4.25984 87.8746 4.08289C88.2707 3.70069 88.7022 3.36095 89.1478 3.04245C90.0532 2.4196 91.0435 1.91707 92.0904 1.56317C93.1373 1.20928 94.2337 0.989868 95.3513 0.933245L98.3859 0.841233L104.384 0.742143C108.381 0.657209 112.384 0.643053 116.381 0.62182L120.102 0.600586L117.477 3.25478L113.806 6.96358L110.093 10.637C107.624 13.0859 105.148 15.5349 102.637 17.9413C100.14 20.362 97.6431 22.7826 95.1037 25.1678L91.3053 28.7492L85.0664 34.6522L84.4298 35.2396L83.871 34.6663C82.2016 32.9464 80.5818 31.1769 78.9336 29.4287C77.3067 27.6663 75.6869 25.8898 74.0953 24.092C75.9557 25.6137 77.7948 27.1567 79.6198 28.7138C81.4306 30.2851 83.2626 31.8352 85.0522 33.4348L83.8568 33.4489L89.8127 27.2558L93.3919 23.455C95.7687 20.914 98.1949 18.4155 100.614 15.9171C103.019 13.4044 105.466 10.9343 107.914 8.45701L111.585 4.74113L115.299 1.0748L116.388 3.70776C112.391 3.68653 108.388 3.67945 104.391 3.58744L98.3929 3.48835L95.4291 3.41049C94.5449 3.40342 93.6537 3.53082 92.7907 3.76439C91.9277 4.00503 91.1001 4.36601 90.3291 4.83314C89.9471 5.06671 89.5652 5.31444 89.2115 5.60463C89.0276 5.73911 88.8649 5.89482 88.688 6.04346L88.1363 6.55306C86.665 7.90493 84.5783 9.87258 83.0858 11.2103C80.122 13.907 77.144 16.5895 74.0953 19.1941Z" fill="white"/>
<path d="M66.0739 27.277L46.5297 48.9352L46.9612 47.8948L47.0744 80.4105L45.4829 78.825L59.9553 78.7825L58.3213 80.4175L58.1657 71.9807L58.095 67.7623L58.0525 65.6177C58.0384 65.2426 58.0384 64.8675 58.0525 64.4853C58.0596 64.1031 58.0737 63.7209 58.1162 63.3316C58.3496 60.2598 59.2833 57.1455 60.9951 54.4489C61.8581 53.1112 62.8979 51.8867 64.0792 50.825C64.6663 50.2942 65.2958 49.7916 65.9537 49.3387C66.2861 49.1122 66.6257 48.8928 66.9793 48.6875C67.1562 48.5813 67.333 48.4822 67.524 48.3831C67.7221 48.277 67.8706 48.1991 68.1677 48.0717L69.547 47.4701L70.5939 48.6309C74.2509 52.6653 77.8655 56.735 81.473 60.8119L92.2814 73.0707L94.9198 76.1C95.712 76.9565 96.5609 77.6713 97.3531 78.004C97.7563 78.1668 98.1171 78.2517 98.5768 78.2659L100.572 78.2871L104.653 78.3296C107.376 78.3437 110.093 78.4287 112.816 78.4853L114.86 78.5348L115.32 78.549C115.185 78.556 114.995 78.6056 114.86 78.7047C114.57 78.9029 114.443 79.186 114.464 79.5186C114.478 79.6814 114.549 79.8584 114.634 79.9716C114.648 79.9929 114.697 80.0495 114.683 80.0282L114.598 79.9292L114.429 79.738L113.757 78.9666L112.42 77.4307C105.283 69.2133 98.0817 61.0525 91.0647 52.7219C84.069 44.3771 77.1299 35.9827 70.5302 27.2911C78.3394 34.9211 85.8091 42.8412 93.2222 50.8179C100.621 58.8088 107.829 66.9625 115.101 75.0667L116.459 76.5884L117.138 77.3457L117.308 77.5368L117.392 77.6288C117.435 77.6713 117.534 77.7987 117.598 77.8837C117.881 78.28 118.072 78.7825 118.107 79.2851C118.178 80.2901 117.704 81.2669 116.841 81.8331C116.416 82.1162 115.893 82.2719 115.412 82.279L114.853 82.2932L112.809 82.3427C110.085 82.3993 107.369 82.4913 104.646 82.4984L100.564 82.5409L98.4778 82.5621C97.5795 82.5621 96.5892 82.371 95.7262 82.0313C93.9932 81.3235 92.727 80.2193 91.6731 79.094L88.9497 75.9656C81.8408 67.7694 74.5622 59.6652 67.3967 51.4832L69.8229 52.0424C69.7946 52.0566 69.6248 52.1344 69.5117 52.191C69.3843 52.2547 69.257 52.3255 69.1297 52.3963C68.875 52.5378 68.6204 52.7006 68.3657 52.8705C67.8635 53.2102 67.3754 53.5854 66.9157 53.9888C65.989 54.7957 65.1897 55.73 64.4965 56.7421C63.103 58.7664 62.2684 61.1658 61.9783 63.6996C61.9359 64.0181 61.9147 64.3366 61.8935 64.6551C61.8652 64.9736 61.8581 65.2992 61.851 65.6319C61.8227 66.2689 61.8227 67.0191 61.8086 67.7128L61.7378 71.9453L61.5822 80.4105V82.0454L59.9482 82.0384L45.4899 81.9959H43.8984L43.9054 80.4034L44.0186 47.8877V47.2436L44.4501 46.8543L66.0739 27.277Z" fill="white"/>
<path d="M157.761 99.2164C156.346 99.2164 155.031 99.5845 153.849 100.313C152.718 101.007 151.904 101.984 151.416 103.208L142.815 125.341L134.114 103.329C133.888 102.677 133.584 102.132 133.181 101.644C132.763 101.149 132.275 100.717 131.716 100.37C131.2 100.045 130.627 99.7827 130.033 99.5845C129.34 99.358 128.187 99.2164 127.515 99.2164H121.573L137.319 135.441L130.096 152.378C129.877 152.881 129.927 153.426 130.224 153.879C130.521 154.332 131.009 154.594 131.554 154.594H135.345C136.024 154.594 136.717 154.494 137.403 154.289C138.083 154.091 138.719 153.808 139.292 153.44C139.851 153.086 140.346 152.647 140.77 152.138C141.188 151.635 141.513 151.069 141.747 150.439L163.993 99.2094H157.761V99.2164Z" fill="white"/>
<path d="M114.011 108.276C114.535 107.547 114.945 106.747 115.228 105.912C115.511 105.084 115.652 104.206 115.652 103.307V99.2235H84.359V108.297H101.696L99.5671 111.107C97.5441 113.776 95.4362 116.678 93.3 119.728C91.1425 122.8 88.7729 126.042 86.2547 129.361C84.26 131.895 84.1114 136.588 84.168 138.881H113.834C115.058 138.881 116.048 137.89 116.048 136.665V129.807H98.2161L114.011 108.276Z" fill="white"/>
<path d="M59.3611 130.946C56.9703 130.946 54.6714 129.899 53.0657 128.066C53.0515 128.066 52.9879 128.009 52.9313 127.938C52.5139 127.5 52.1461 126.919 51.8349 126.211C51.2478 125.044 50.9507 123.798 50.9507 122.517L50.9719 122.219C50.9436 121.958 50.9224 121.483 50.9224 120.974V99.2164H40.9911V120.974C40.9911 123.77 41.3378 126.332 42.0239 128.582C42.6959 130.777 43.6649 132.652 44.9028 134.167C46.1195 135.653 47.6332 136.821 49.4016 137.635C51.1063 138.421 53.0869 138.838 55.2868 138.867C56.3902 138.881 57.5008 138.767 58.5689 138.484C59.8846 138.145 61.1083 137.635 62.1976 136.977C63.1243 136.418 64.4612 135.214 65.0129 134.592C66.7813 132.596 67.2198 131.038 67.2269 131.024L67.7079 129.248L68.4436 133.084C69.4409 137.019 71.563 138.859 75.1068 138.859H76.9106C77.3704 138.859 77.7382 138.491 77.7382 138.031V99.2094H67.8069V122.078C67.8069 122.212 67.7999 122.361 67.7786 122.524C67.7857 127.167 64.0084 130.946 59.3611 130.946Z" fill="white"/>
<path d="M26.5328 99.2305C23.3144 99.2305 20.3364 100.837 18.561 103.52L9.72612 116.918V88.1962H0V138.017H9.72612V125.893L13.3336 121.448L22.2746 134.096C24.0147 136.559 26.8512 138.024 29.8574 138.024H34.2713C34.6108 138.024 34.9008 137.847 35.0565 137.543C35.2121 137.239 35.1909 136.899 34.9928 136.623L20.3223 115.899L35.0423 99.2305H26.5328Z" fill="white"/>
<path d="M27.0421 151.911L29.0298 147.473C29.1359 147.232 29.3269 147.091 29.5957 147.091H29.6381C29.9069 147.091 30.0908 147.24 30.1969 147.473L32.1846 151.911C32.2199 151.982 32.2412 152.045 32.2412 152.109C32.2412 152.364 32.0502 152.562 31.7955 152.562C31.5762 152.562 31.4206 152.435 31.3357 152.237L30.8972 151.232H28.2941L27.8414 152.265C27.7636 152.456 27.6009 152.562 27.4029 152.562C27.1553 152.562 26.9643 152.371 26.9643 152.123C26.9784 152.053 27.0067 151.989 27.0421 151.911ZM30.5435 150.396L29.6027 148.23L28.6619 150.396H30.5435Z" fill="white"/>
<path d="M33.4153 147.593C33.4153 147.332 33.6205 147.126 33.8893 147.126C34.151 147.126 34.3561 147.332 34.3561 147.593V151.663H36.7824C37.0229 151.663 37.2138 151.854 37.2138 152.095C37.2138 152.336 37.0229 152.527 36.7824 152.527H33.8893C33.6205 152.527 33.4153 152.321 33.4153 152.053V147.593Z" fill="white"/>
<path d="M38.3032 152.045V147.636C38.3032 147.367 38.5083 147.162 38.7771 147.162H41.8894C42.1158 147.162 42.3068 147.353 42.3068 147.579C42.3068 147.82 42.1158 147.997 41.8894 147.997H39.2439V149.391H41.5428C41.7763 149.391 41.9673 149.582 41.9673 149.823C41.9673 150.05 41.7763 150.234 41.5428 150.234H39.2439V151.67H41.9319C42.1582 151.67 42.3492 151.861 42.3492 152.088C42.3492 152.329 42.1582 152.513 41.9319 152.513H38.7771C38.5083 152.52 38.3032 152.314 38.3032 152.045Z" fill="white"/>
<path d="M43.3395 149.858V149.844C43.3395 148.344 44.4855 147.077 46.0982 147.077C46.9046 147.077 47.4351 147.268 47.9232 147.622C48.0152 147.693 48.1142 147.82 48.1142 148.004C48.1142 148.259 47.9091 148.471 47.6473 148.471C47.5271 148.471 47.4351 148.422 47.3573 148.365C47.0107 148.11 46.6358 147.947 46.0558 147.947C45.0726 147.947 44.3157 148.811 44.3157 149.837V149.851C44.3157 150.955 45.0443 151.762 46.1336 151.762C46.6358 151.762 47.0956 151.6 47.4281 151.359V150.354H46.3741C46.1477 150.354 45.9568 150.177 45.9568 149.95C45.9568 149.724 46.1477 149.533 46.3741 149.533H47.8666C48.1354 149.533 48.3405 149.738 48.3405 150.007V151.437C48.3405 151.706 48.2344 151.897 48.0152 152.031C47.5554 152.336 46.9117 152.612 46.1124 152.612C44.443 152.612 43.3395 151.423 43.3395 149.858Z" fill="white"/>
<path d="M49.727 147.636C49.727 147.367 49.9321 147.162 50.2009 147.162H52.1108C52.7828 147.162 53.3133 147.36 53.6528 147.7C53.9357 147.99 54.0984 148.386 54.0984 148.853V148.867C54.0984 149.724 53.6033 150.248 52.8818 150.467L53.9074 151.762C53.9994 151.876 54.0631 151.975 54.0631 152.123C54.0631 152.385 53.8438 152.562 53.6104 152.562C53.3982 152.562 53.2567 152.463 53.1506 152.314L51.8561 150.651H50.6748V152.088C50.6748 152.35 50.4697 152.555 50.208 152.555C49.9392 152.555 49.7341 152.35 49.7341 152.088V147.636H49.727ZM52.0471 149.823C52.7191 149.823 53.1506 149.469 53.1506 148.924V148.91C53.1506 148.337 52.7403 148.018 52.04 148.018H50.6678V149.816H52.0471V149.823Z" fill="white"/>
<path d="M55.4636 147.593C55.4636 147.332 55.6687 147.126 55.9375 147.126C56.1992 147.126 56.4043 147.332 56.4043 147.593V152.095C56.4043 152.357 56.1992 152.562 55.9375 152.562C55.6687 152.562 55.4636 152.357 55.4636 152.095V147.593ZM55.6828 146.595C55.6828 146.539 55.7111 146.475 55.7465 146.426L56.1851 145.753C56.2699 145.619 56.3902 145.534 56.5529 145.534C56.8005 145.534 57.1046 145.69 57.1046 145.831C57.1046 145.916 57.0551 145.994 56.9773 146.058L56.468 146.546C56.2841 146.716 56.1355 146.751 55.9233 146.751C55.7819 146.758 55.6828 146.695 55.6828 146.595Z" fill="white"/>
<path d="M57.6776 151.911L59.6653 147.473C59.7714 147.232 59.9624 147.091 60.2312 147.091H60.2736C60.5424 147.091 60.7263 147.24 60.8324 147.473L62.8201 151.911C62.8554 151.982 62.8767 152.045 62.8767 152.109C62.8767 152.364 62.6857 152.562 62.431 152.562C62.2117 152.562 62.0561 152.435 61.9712 152.237L61.5327 151.232H58.9296L58.4769 152.265C58.3991 152.456 58.2364 152.562 58.0384 152.562C57.7908 152.562 57.5998 152.371 57.5998 152.123C57.621 152.053 57.6422 151.989 57.6776 151.911ZM61.1861 150.396L60.2453 148.23L59.3045 150.396H61.1861Z" fill="white"/>
<path d="M66.4984 152.045V147.636C66.4984 147.367 66.7035 147.162 66.9723 147.162H70.0846C70.311 147.162 70.502 147.353 70.502 147.579C70.502 147.82 70.311 147.997 70.0846 147.997H67.4391V149.391H69.738C69.9715 149.391 70.1624 149.582 70.1624 149.823C70.1624 150.05 69.9715 150.234 69.738 150.234H67.4391V151.67H70.1271C70.3534 151.67 70.5444 151.861 70.5444 152.088C70.5444 152.329 70.3534 152.513 70.1271 152.513H66.9723C66.7035 152.52 66.4984 152.314 66.4984 152.045Z" fill="white"/>
<path d="M71.7751 147.608C71.7751 147.346 71.9803 147.133 72.2491 147.133H72.3481C72.5745 147.133 72.7089 147.247 72.8362 147.409L75.517 150.878V147.586C75.517 147.332 75.7222 147.126 75.9768 147.126C76.2386 147.126 76.4437 147.332 76.4437 147.586V152.088C76.4437 152.35 76.2456 152.555 75.9839 152.555H75.9485C75.7293 152.555 75.5878 152.442 75.4605 152.272L72.7089 148.705V152.102C72.7089 152.357 72.5037 152.562 72.2491 152.562C71.9874 152.562 71.7822 152.357 71.7822 152.102V147.608H71.7751Z" fill="white"/>
<path d="M80.1785 149.858V149.844C80.1785 148.322 81.3174 147.077 82.9372 147.077C83.7648 147.077 84.3095 147.325 84.7693 147.685C84.8683 147.763 84.9532 147.891 84.9532 148.061C84.9532 148.322 84.748 148.521 84.4863 148.521C84.359 148.521 84.267 148.478 84.2034 148.429C83.8356 148.131 83.4394 147.947 82.9231 147.947C81.9045 147.947 81.1547 148.79 81.1547 149.837V149.851C81.1547 150.899 81.8974 151.748 82.9231 151.748C83.489 151.748 83.8709 151.564 84.26 151.231C84.3307 151.168 84.4297 151.125 84.5429 151.125C84.7834 151.125 84.9885 151.323 84.9885 151.564C84.9885 151.713 84.9178 151.826 84.8329 151.904C84.3307 152.35 83.7577 152.626 82.8877 152.626C81.3457 152.612 80.1785 151.394 80.1785 149.858Z" fill="white"/>
<path d="M85.9081 151.911L87.8958 147.473C88.0019 147.232 88.1929 147.091 88.4617 147.091H88.5041C88.7729 147.091 88.9568 147.24 89.0629 147.473L91.0506 151.911C91.0859 151.982 91.1072 152.045 91.1072 152.109C91.1072 152.364 90.9162 152.562 90.6615 152.562C90.4422 152.562 90.2866 152.435 90.2017 152.237L89.7632 151.232H87.1601L86.7074 152.265C86.6296 152.456 86.4669 152.562 86.2689 152.562C86.0213 152.562 85.8303 152.371 85.8303 152.123C85.8515 152.053 85.8727 151.989 85.9081 151.911ZM89.4166 150.396L88.4758 148.23L87.535 150.396H89.4166Z" fill="white"/>
<path d="M92.2813 147.636C92.2813 147.367 92.4865 147.162 92.7553 147.162H94.2761C95.9596 147.162 97.1196 148.315 97.1196 149.823V149.837C97.1196 151.345 95.9596 152.52 94.2761 152.52H92.7553C92.4865 152.52 92.2813 152.314 92.2813 152.045V147.636ZM94.2761 151.663C95.4008 151.663 96.1364 150.906 96.1364 149.858V149.844C96.1364 148.797 95.4008 148.025 94.2761 148.025H93.2221V151.67H94.2761V151.663Z" fill="white"/>
<path d="M97.8411 151.911L99.8288 147.473C99.9349 147.232 100.126 147.091 100.395 147.091H100.444C100.713 147.091 100.897 147.24 101.003 147.473L102.991 151.911C103.026 151.982 103.047 152.045 103.047 152.109C103.047 152.364 102.856 152.562 102.602 152.562C102.382 152.562 102.227 152.435 102.142 152.237L101.703 151.232H99.1002L98.6475 152.265C98.5697 152.456 98.407 152.562 98.2089 152.562C97.9614 152.562 97.7704 152.371 97.7704 152.123C97.7775 152.053 97.8058 151.989 97.8411 151.911ZM101.343 150.396L100.402 148.23L99.461 150.396H101.343Z" fill="white"/>
<path d="M106.662 147.636C106.662 147.367 106.867 147.162 107.136 147.162H108.777C110.029 147.162 110.814 147.877 110.814 148.952V148.967C110.814 150.17 109.852 150.8 108.671 150.8H107.61V152.095C107.61 152.357 107.405 152.562 107.143 152.562C106.874 152.562 106.669 152.357 106.669 152.095V147.636H106.662ZM108.692 149.95C109.406 149.95 109.845 149.554 109.845 148.995V148.981C109.845 148.351 109.392 148.025 108.692 148.025H107.596V149.957H108.692V149.95Z" fill="white"/>
<path d="M111.189 151.911L113.177 147.473C113.283 147.232 113.474 147.091 113.743 147.091H113.785C114.054 147.091 114.238 147.24 114.344 147.473L116.331 151.911C116.367 151.982 116.388 152.045 116.388 152.109C116.388 152.364 116.197 152.562 115.942 152.562C115.723 152.562 115.567 152.435 115.483 152.237L115.044 151.232H112.441L111.988 152.265C111.91 152.456 111.748 152.562 111.55 152.562C111.302 152.562 111.111 152.371 111.111 152.123C111.125 152.053 111.147 151.989 111.189 151.911ZM114.69 150.396L113.75 148.23L112.809 150.396H114.69Z" fill="white"/>
<path d="M117.357 151.925C117.251 151.847 117.173 151.72 117.173 151.564C117.173 151.316 117.371 151.125 117.619 151.125C117.746 151.125 117.831 151.161 117.895 151.21C118.34 151.564 118.814 151.762 119.394 151.762C119.974 151.762 120.342 151.486 120.342 151.09V151.076C120.342 150.694 120.13 150.488 119.133 150.255C117.994 149.979 117.35 149.646 117.35 148.655V148.641C117.35 147.721 118.114 147.091 119.182 147.091C119.854 147.091 120.399 147.268 120.88 147.586C120.986 147.65 121.085 147.777 121.085 147.962C121.085 148.209 120.887 148.4 120.639 148.4C120.547 148.4 120.469 148.379 120.392 148.33C119.981 148.061 119.578 147.926 119.161 147.926C118.609 147.926 118.291 148.209 118.291 148.563V148.577C118.291 148.988 118.538 149.172 119.571 149.42C120.703 149.696 121.283 150.099 121.283 150.991V151.005C121.283 152.01 120.498 152.605 119.373 152.605C118.644 152.598 117.951 152.371 117.357 151.925Z" fill="white"/>
<path d="M122.309 149.858V149.844C122.309 148.337 123.469 147.077 125.117 147.077C126.765 147.077 127.911 148.322 127.911 149.83V149.844C127.911 151.352 126.751 152.619 125.103 152.619C123.454 152.612 122.309 151.366 122.309 149.858ZM126.92 149.858V149.844C126.92 148.804 126.164 147.94 125.103 147.94C124.042 147.94 123.299 148.79 123.299 149.83V149.844C123.299 150.885 124.056 151.741 125.117 151.741C126.178 151.741 126.92 150.899 126.92 149.858Z" fill="white"/>
</svg>
