<svg width="90" height="91" viewBox="0 0 90 91" fill="none" xmlns="http://www.w3.org/2000/svg">
<path d="M88.8589 43.9312L88.8598 43.9321C89.713 44.8751 89.7142 46.3257 88.8589 47.276L61.8646 77.2697C61.864 77.2704 61.8633 77.2711 61.8627 77.2718C61.3778 77.7959 60.7063 78.0988 60.0001 78.0988H42.0011C41.017 78.0988 40.1214 77.5193 39.7156 76.6126L39.7152 76.6117C39.3116 75.7147 39.4798 74.66 40.1409 73.9235C40.141 73.9234 40.1411 73.9232 40.1413 73.9231L65.3335 45.9351L65.6345 45.6006L65.3335 45.2661L40.1409 17.2716L40.1401 17.2708C39.4826 16.5435 39.3155 15.4893 39.7159 14.5819C40.1217 13.6817 41.0172 13.1024 42.0011 13.1024H60.0001C60.7087 13.1024 61.3785 13.401 61.8609 13.9334C61.8611 13.9336 61.8612 13.9338 61.8614 13.9339L88.8589 43.9312Z" stroke="#48128C"/>
<path d="M49.861 43.9312L49.8619 43.9321C50.7151 44.8751 50.7163 46.3257 49.861 47.276L22.8667 77.2697C22.8661 77.2704 22.8654 77.2711 22.8648 77.2718C22.3799 77.7959 21.7084 78.0988 21.0022 78.0988H3.00321C2.01914 78.0988 1.1235 77.5193 0.717745 76.6126L0.71732 76.6117C0.313671 75.7147 0.481923 74.66 1.14303 73.9235C1.14314 73.9234 1.14325 73.9232 1.14336 73.9231L26.3356 45.9351L26.6367 45.6006L26.3356 45.2661L1.143 17.2716L1.14222 17.2708C0.484686 16.5435 0.317648 15.4893 0.718008 14.5819C1.12384 13.6817 2.01927 13.1024 3.00321 13.1024H21.0022C21.7108 13.1024 22.3806 13.401 22.863 13.9334C22.8632 13.9336 22.8633 13.9338 22.8635 13.9339L49.861 43.9312Z" stroke="#48128C"/>
</svg>
