<svg width="17" height="17" viewBox="0 0 17 17" fill="none" xmlns="http://www.w3.org/2000/svg">
<path fill-rule="evenodd" clip-rule="evenodd" d="M14.1376 2.43965C12.6465 0.946869 10.6636 0.124411 8.55107 0.123535C4.19802 0.123535 0.655275 3.66618 0.653524 8.0204C0.652941 9.4123 1.01655 10.771 1.70769 11.9687L0.58728 16.061L4.77389 14.9628C5.92747 15.5921 7.22619 15.9237 8.54786 15.9241H8.55117C12.9037 15.9241 16.4469 12.3811 16.4485 8.02672C16.4494 5.91644 15.6287 3.93233 14.1376 2.43965ZM8.55107 14.5903H8.54835C7.37054 14.5898 6.21541 14.2733 5.20744 13.6754L4.96786 13.5331L2.48346 14.1848L3.14658 11.7626L2.99045 11.5142C2.33336 10.4691 1.98638 9.26114 1.98697 8.02088C1.98833 4.40178 4.93303 1.45737 8.5537 1.45737C10.307 1.45795 11.9551 2.1416 13.1944 3.38234C14.4337 4.62308 15.1158 6.27227 15.1152 8.02623C15.1136 11.6456 12.1691 14.5903 8.55107 14.5903ZM12.1516 9.67417C11.9543 9.57534 10.9841 9.09811 10.8032 9.03215C10.6224 8.9663 10.4907 8.93352 10.3593 9.13098C10.2277 9.32845 9.84959 9.773 9.73442 9.90461C9.61925 10.0363 9.50427 10.0529 9.3069 9.95403C9.10953 9.85529 8.47374 9.64683 7.71996 8.97457C7.13339 8.45133 6.73738 7.80513 6.62221 7.60766C6.50723 7.41 6.62124 7.3135 6.70878 7.20494C6.9224 6.93968 7.13631 6.66157 7.20206 6.52995C7.26792 6.39824 7.23494 6.28297 7.18553 6.18424C7.13631 6.08551 6.74166 5.11422 6.57727 4.71899C6.41696 4.33437 6.25441 4.38631 6.13321 4.38028C6.01823 4.37454 5.88662 4.37337 5.755 4.37337C5.62349 4.37337 5.40968 4.42269 5.22875 4.62035C5.04791 4.81792 4.53819 5.29525 4.53819 6.26653C4.53819 7.23782 5.24528 8.17614 5.34392 8.30785C5.44256 8.43956 6.73544 10.4327 8.71488 11.2874C9.18569 11.4909 9.5532 11.6122 9.83987 11.7031C10.3126 11.8533 10.7427 11.8321 11.0827 11.7813C11.4619 11.7246 12.2501 11.3039 12.4147 10.843C12.5791 10.382 12.5791 9.987 12.5297 9.90461C12.4805 9.82232 12.3489 9.773 12.1516 9.67417Z" fill="white"/>
</svg>
