<svg width="81" height="82" viewBox="0 0 81 82" fill="none" xmlns="http://www.w3.org/2000/svg">
<g clip-path="url(#clip0)">
<path d="M66.9236 68.9381L73.0793 54.3013L66.8736 48.7487C64.207 46.3627 62.683 42.9539 62.683 39.3758C62.683 34.8095 65.1581 30.6017 69.1496 28.3831L74.6731 25.3124L69.7682 11.0741H66.1573C60.0189 11.0741 54.1926 8.5509 50.0046 4.16571C45.8159 8.5509 39.9896 11.0741 33.8511 11.0741C31.6907 11.0741 29.7681 12.4454 29.0643 14.4885L26.7178 21.3005C25.9187 23.6216 26.8995 26.1819 29.0451 27.3746L30.8595 28.3831C34.851 30.6017 37.3261 34.8095 37.3261 39.3758C37.3261 42.9539 35.8021 46.3627 33.1355 48.7487L29.6211 51.8936C28.0106 53.3341 27.4921 55.638 28.3295 57.6297L33.0855 68.9381C39.0311 68.9381 44.8259 70.3848 50.0046 73.0792C55.1832 70.3848 60.978 68.9381 66.9236 68.9381Z" fill="#FFE7EC"/>
<path d="M76.1686 24.7976L71.2643 10.5587C71.0443 9.92036 70.443 9.4921 69.7682 9.4921H66.1573C59.679 9.4921 53.4825 6.40405 49.5824 1.23031C49.2833 0.833565 48.8155 0.600586 48.3193 0.600586H32.9983C32.5021 0.600586 32.0342 0.833565 31.7351 1.23031C27.8351 6.40343 21.6392 9.4921 15.1603 9.4921H11.5494C10.8746 9.4921 10.2739 9.92036 10.0539 10.5587L5.14899 24.7976C4.89932 25.5225 5.20584 26.3228 5.87635 26.6954L11.3999 29.7656C14.8865 31.7042 17.0532 35.3861 17.0532 39.3758C17.0532 42.4997 15.7177 45.4864 13.3891 47.5696L7.184 53.1222C6.68034 53.5727 6.51843 54.2926 6.78046 54.9143L12.9362 69.5518C13.1827 70.1383 13.7575 70.5202 14.3946 70.5202C23.7428 70.5202 32.5373 74.1552 39.1571 80.7558L39.5421 81.139C39.8505 81.4467 40.2546 81.6006 40.6588 81.6006C41.063 81.6006 41.4671 81.4467 41.7755 81.139L42.1605 80.7558C44.1145 78.8079 46.2985 77.0918 48.6524 75.655C49.3983 75.2002 49.6337 74.2262 49.1789 73.4809C48.7234 72.735 47.7501 72.4996 47.0042 72.9544C44.7282 74.343 42.5974 75.972 40.6594 77.8037C37.258 74.5865 33.3407 72.0497 29.0006 70.2557C24.6722 68.4666 20.119 67.4976 15.4513 67.3703L10.1342 54.7283L15.4995 49.9278C18.4974 47.2452 20.2172 43.3989 20.2172 39.3758C20.2172 34.2385 17.4277 29.4961 12.9374 27.0001L8.5726 24.5739L12.6778 12.6562H15.1603C22.3598 12.6562 29.2564 9.34687 33.7702 3.76465H47.548C52.0612 9.34687 58.9578 12.6562 66.1573 12.6562H68.6397L72.7456 24.5739L68.3808 27.0001C63.8899 29.4961 61.1004 34.2385 61.1004 39.3758C61.1004 43.3995 62.8202 47.2452 65.8187 49.9278L71.1833 54.7283L65.8662 67.371C63.3202 67.4414 60.7803 67.7671 58.2997 68.3412C57.4487 68.5383 56.9185 69.388 57.1156 70.239C57.3121 71.0906 58.1643 71.6208 59.0134 71.4237C61.6034 70.8242 64.2644 70.5202 66.923 70.5202C67.5601 70.5202 68.1348 70.1383 68.3814 69.5518L74.5371 54.9143C74.7992 54.292 74.6372 53.5727 74.1336 53.1222L67.9284 47.5696C65.5999 45.4864 64.2644 42.4997 64.2644 39.3758C64.2644 35.3861 66.4311 31.7042 69.9177 29.7656L75.4412 26.6954C76.1124 26.3228 76.4189 25.5225 76.1686 24.7976Z" fill="#48128C"/>
<path d="M52.7132 70.0944C52.7125 70.095 52.694 70.1024 52.6915 70.103C51.8777 70.4188 51.4729 71.3353 51.7887 72.1498C52.0315 72.777 52.6297 73.1608 53.2638 73.1608C53.4541 73.1608 53.6475 73.1262 53.8354 73.0533L53.8879 73.0329C54.6993 72.7078 55.0942 71.7877 54.7698 70.9762C54.4454 70.1648 53.524 69.7706 52.7132 70.0944Z" fill="#25064B"/>
<path d="M58.2292 14.6306C57.7528 14.4854 57.2763 14.3253 56.8128 14.1548C55.9921 13.8538 55.0831 14.2746 54.7827 15.0953C54.4818 15.9154 54.9026 16.8244 55.7227 17.1254C56.2406 17.3151 56.7733 17.4943 57.3053 17.6569C57.4592 17.7038 57.615 17.7261 57.7682 17.7261C58.4455 17.7261 59.0722 17.2873 59.2804 16.6057C59.5356 15.7702 59.0647 14.8858 58.2292 14.6306Z" fill="#48128C"/>
<path d="M58.5951 65.0344C59.451 64.8588 60.0022 64.0227 59.8267 63.1668C59.6512 62.3103 58.8151 61.7603 57.9592 61.9346C57.4271 62.0439 56.8882 62.1651 56.358 62.2948C55.5089 62.5025 54.9892 63.3584 55.1968 64.2075C55.3736 64.9299 56.02 65.4138 56.7325 65.4138C56.8567 65.4138 56.9828 65.399 57.1095 65.3681C57.6014 65.2482 58.1013 65.1357 58.5951 65.0344Z" fill="#48128C"/>
<path d="M56.5539 47.7259C56.8166 48.3143 57.3944 48.6634 57.9994 48.6634C58.2151 48.6634 58.4338 48.6189 58.6433 48.5256C59.4412 48.1697 59.7996 47.234 59.443 46.4362C59.2471 45.9962 59.0667 45.5432 58.9085 45.0896C58.6205 44.2646 57.7176 43.8296 56.8932 44.1175C56.0682 44.4061 55.6332 45.3084 55.9211 46.1334C56.109 46.6698 56.3216 47.2056 56.5539 47.7259Z" fill="#48128C"/>
<path d="M56.3611 40.5092C57.217 40.5092 57.9215 39.8251 57.9419 38.9642C57.953 38.4828 57.9852 37.9965 58.0365 37.5182C58.1304 36.6493 57.5025 35.8694 56.6336 35.7755C55.7648 35.6803 54.9849 36.3094 54.8909 37.1783C54.8297 37.7437 54.7921 38.3197 54.7785 38.8895C54.7581 39.7627 55.4496 40.4882 56.3228 40.5086C56.3358 40.5092 56.3481 40.5092 56.3611 40.5092Z" fill="#48128C"/>
<path d="M15.3358 19.5126C14.509 19.2284 13.6092 19.6678 13.3243 20.4934L12.8596 21.8437C12.6099 22.5686 12.9158 23.3682 13.5863 23.7415L13.7217 23.8163C13.9645 23.9516 14.2284 24.0159 14.4892 24.0159C15.0448 24.0159 15.5836 23.7229 15.8729 23.2026C16.0391 22.9041 16.0978 22.5754 16.0632 22.2596L16.3166 21.5242C16.6008 20.6979 16.1614 19.7975 15.3358 19.5126Z" fill="#48128C"/>
<path d="M62.4179 25.4119C62.73 25.8136 63.1972 26.0237 63.6687 26.0237C64.008 26.0237 64.3497 25.9155 64.6383 25.6912C65.0178 25.3964 65.4151 25.114 65.8175 24.8526C66.5504 24.3761 66.7586 23.3966 66.2822 22.6637C65.8063 21.9308 64.8268 21.7232 64.0939 22.199C63.6174 22.5086 63.1478 22.8429 62.6973 23.1921C62.0076 23.7279 61.8821 24.7216 62.4179 25.4119Z" fill="#48128C"/>
<path d="M51.7392 65.3501C51.4012 64.5443 50.4736 64.1655 49.6683 64.5041C49.1647 64.7155 48.6604 64.938 48.1685 65.166C47.3756 65.5331 47.0308 66.4736 47.3985 67.2659C47.6661 67.8437 48.2377 68.1836 48.8347 68.1836C49.0572 68.1836 49.2833 68.1366 49.4984 68.0365C49.9557 67.8252 50.4248 67.6175 50.8932 67.421C51.699 67.083 52.0779 66.1554 51.7392 65.3501Z" fill="#48128C"/>
<path d="M65.5029 19.7054C65.6741 19.7054 65.8477 19.677 66.0189 19.6183C66.8452 19.3334 67.2839 18.4336 66.999 17.6074L66.7457 16.872C66.5318 16.2515 65.9571 15.8276 65.3008 15.8066C65.0468 15.7979 64.7916 15.7862 64.5419 15.7714C63.6712 15.7176 62.9197 16.3825 62.8672 17.2545C62.819 18.0498 63.3665 18.7432 64.1248 18.8996C64.4066 19.4014 64.9393 19.7054 65.5029 19.7054Z" fill="#48128C"/>
<path d="M47.9794 12.9084C48.4219 13.2414 48.8792 13.5671 49.3396 13.8749C49.6103 14.0566 49.9162 14.1431 50.219 14.1431C50.7288 14.1431 51.2294 13.8971 51.5347 13.4417C52.021 12.7155 51.827 11.733 51.1008 11.2466C50.6893 10.9704 50.2789 10.6787 49.8822 10.3802C49.1845 9.85429 48.1926 9.99457 47.6673 10.6929C47.1414 11.3906 47.2811 12.3831 47.9794 12.9084Z" fill="#48128C"/>
<path d="M64.0253 52.5691L63.7089 52.286C63.4469 52.0512 63.1886 51.8053 62.9408 51.5544C62.3265 50.9333 61.3247 50.9277 60.703 51.542C60.082 52.1563 60.0764 53.158 60.6907 53.7797C60.9836 54.0757 61.2889 54.3662 61.5991 54.6436L61.9155 54.9267C62.2171 55.1974 62.5941 55.3302 62.9698 55.3302C63.4042 55.3302 63.8368 55.1522 64.1495 54.8031C64.7323 54.1517 64.6767 53.1518 64.0253 52.5691Z" fill="#48128C"/>
<path d="M59.9818 28.1317C59.2372 27.675 58.2632 27.9073 57.8053 28.652C57.5074 29.1371 57.2263 29.6402 56.9704 30.1481C56.5768 30.928 56.8901 31.8791 57.67 32.2728C57.8986 32.3883 58.1421 32.4427 58.3819 32.4427C58.9597 32.4427 59.5171 32.1251 59.7952 31.5732C60.0121 31.1437 60.2494 30.7185 60.5016 30.3082C60.9589 29.5635 60.7259 28.5896 59.9818 28.1317Z" fill="#48128C"/>
<path d="M62.7146 58.5412L62.1015 59.9997C61.7629 60.8049 62.1411 61.7325 62.9463 62.0711C63.1472 62.1558 63.3548 62.1953 63.5594 62.1953C64.1767 62.1953 64.7638 61.8313 65.0178 61.2263L65.6315 59.7679C65.9701 58.9627 65.5919 58.0351 64.7867 57.6965C63.9808 57.3572 63.0532 57.736 62.7146 58.5412Z" fill="#48128C"/>
<path d="M22.9555 35.561C23.1217 36.2958 23.7743 36.7945 24.4973 36.7945C24.6123 36.7945 24.7297 36.7821 24.8471 36.7555C25.6993 36.5627 26.2345 35.7161 26.0417 34.8633C25.9162 34.3089 25.7661 33.7528 25.5943 33.2096C25.331 32.3765 24.4423 31.9143 23.6093 32.1782C22.7763 32.4408 22.314 33.3301 22.5773 34.1631C22.7225 34.6216 22.8492 35.0919 22.9555 35.561Z" fill="#48128C"/>
<path d="M19.2433 18.705C19.7926 18.6296 20.3464 18.5381 20.8896 18.433C21.7473 18.2674 22.3084 17.4375 22.1428 16.5797C21.9766 15.722 21.1485 15.1602 20.2889 15.3265C19.8025 15.421 19.3057 15.5026 18.8132 15.5699C17.948 15.6892 17.3424 16.487 17.461 17.3528C17.5698 18.1457 18.2483 18.7198 19.0264 18.7198C19.098 18.7198 19.1703 18.7148 19.2433 18.705Z" fill="#48128C"/>
<path d="M21.9404 52.4423C22.2908 51.9949 22.627 51.5271 22.9397 51.0507C23.4193 50.3208 23.216 49.3401 22.4855 48.8599C21.7551 48.381 20.7743 48.5843 20.2948 49.3141C20.0303 49.7171 19.746 50.1126 19.4494 50.4914C18.9105 51.1792 19.031 52.1735 19.7194 52.7124C20.0086 52.9392 20.3522 53.0486 20.694 53.0486C21.1636 53.0492 21.6284 52.8409 21.9404 52.4423Z" fill="#48128C"/>
<path d="M19.6833 28.6798C19.9954 29.0778 20.4595 29.2854 20.9286 29.2854C21.2703 29.2854 21.6145 29.1754 21.9043 28.948C22.5915 28.4085 22.7114 27.4142 22.1725 26.7263C21.8203 26.2789 21.4458 25.8402 21.0589 25.4236C20.4638 24.784 19.4633 24.7476 18.8231 25.3421C18.1829 25.9366 18.1464 26.9377 18.7415 27.5779C19.069 27.9302 19.3855 28.301 19.6833 28.6798Z" fill="#48128C"/>
<path d="M29.8769 13.386C29.4708 12.6129 28.5142 12.315 27.7405 12.721C27.5755 12.8076 27.4099 12.8928 27.243 12.9757C26.9662 13.1141 26.6825 13.2494 26.4001 13.3773C25.6048 13.7395 25.2537 14.6776 25.6153 15.4729C25.881 16.0557 26.4551 16.3999 27.0564 16.3999C27.2758 16.3999 27.4982 16.3542 27.7108 16.2578C28.0266 16.1138 28.3449 15.9624 28.6551 15.8072C28.8417 15.7139 29.0271 15.6194 29.2119 15.5224C29.985 15.1163 30.2829 14.1597 29.8769 13.386Z" fill="#48128C"/>
<path d="M24.5017 45.1107C25.2254 45.1107 25.8779 44.6113 26.0436 43.8759C26.169 43.3204 26.2722 42.7531 26.3501 42.1901C26.4706 41.3243 25.8668 40.5253 25.0016 40.4047C24.1359 40.2855 23.3368 40.8886 23.2169 41.7544C23.1502 42.2303 23.063 42.7104 22.9574 43.1807C22.7652 44.0329 23.3003 44.8795 24.1525 45.0717C24.27 45.0977 24.3868 45.1107 24.5017 45.1107Z" fill="#48128C"/>
<path d="M43.3254 6.92871H41.7434C40.8696 6.92871 40.1614 7.63692 40.1614 8.51074C40.1614 9.38457 40.8696 10.0928 41.7434 10.0928H43.3254C44.1986 10.0928 44.9075 9.38457 44.9075 8.51074C44.9075 7.63692 44.1986 6.92871 43.3254 6.92871Z" fill="#48128C"/>
<path d="M26.4341 65.9793C26.9174 66.1264 27.405 66.2846 27.8833 66.4502C28.0545 66.5089 28.2288 66.5373 28.3999 66.5373C29.0562 66.5373 29.6693 66.1264 29.8954 65.4713C30.1803 64.6457 29.7422 63.7447 28.9166 63.4592C28.4012 63.2818 27.8765 63.1112 27.3568 62.9524C26.5219 62.6984 25.6369 63.1687 25.3823 64.0042C25.1277 64.8404 25.5986 65.7241 26.4341 65.9793Z" fill="#48128C"/>
<path d="M33.8864 69.0649C34.335 69.3034 34.7825 69.5531 35.2169 69.8058C35.4672 69.951 35.741 70.0203 36.011 70.0203C36.5561 70.0203 37.0863 69.7385 37.3798 69.2329C37.8192 68.4784 37.5628 67.5094 36.8076 67.07C36.3392 66.7981 35.8565 66.5293 35.3739 66.2722C34.6026 65.8612 33.6448 66.1535 33.2338 66.9248C32.8228 67.696 33.1152 68.6539 33.8864 69.0649Z" fill="#48128C"/>
<path d="M18.5301 64.3966C19.0344 64.4473 19.543 64.5072 20.0436 64.5758C20.1165 64.5857 20.1888 64.5907 20.2605 64.5907C21.0385 64.5907 21.7171 64.016 21.8258 63.2231C21.9445 62.3573 21.3389 61.5595 20.4731 61.4408C19.9348 61.3673 19.3867 61.3024 18.8441 61.2486C17.9752 61.1609 17.1996 61.7962 17.1131 62.6657C17.0266 63.5352 17.6613 64.3101 18.5301 64.3966Z" fill="#48128C"/>
<path d="M42.0289 68.6242C41.5778 68.9283 41.1254 69.2453 40.6854 69.566C39.9797 70.0802 39.8246 71.0702 40.3393 71.7759C40.649 72.2011 41.1304 72.4267 41.6192 72.4267C41.9424 72.4267 42.2681 72.3278 42.5499 72.1226C42.9583 71.8248 43.378 71.5306 43.7969 71.2482C44.5218 70.76 44.7134 69.7774 44.2252 69.0525C43.737 68.3276 42.7538 68.136 42.0289 68.6242Z" fill="#48128C"/>
<path d="M35.1125 11.4659C35.5284 11.1007 35.9399 10.7194 36.3354 10.3319C36.9602 9.72073 36.9707 8.71899 36.3596 8.09483C35.7477 7.47066 34.7466 7.45954 34.1218 8.07134C33.7671 8.41803 33.3982 8.76039 33.0255 9.0873C32.3686 9.66388 32.3031 10.6632 32.8791 11.3201C33.1918 11.6766 33.6293 11.8589 34.0693 11.8589C34.4401 11.8589 34.8121 11.7298 35.1125 11.4659Z" fill="#48128C"/>
<path d="M17.012 55.1547C16.4293 54.5033 15.4294 54.4483 14.778 55.0305L14.5271 55.2554C14.0241 55.7059 13.8622 56.4259 14.1236 57.0475L14.6062 58.1951C14.8609 58.8001 15.4473 59.1641 16.0653 59.1641C16.2698 59.1641 16.4775 59.124 16.6777 59.0399C17.4836 58.7013 17.8618 57.7737 17.5231 56.9684L17.3674 56.5983C17.4916 56.1051 17.3767 55.5619 17.012 55.1547Z" fill="#48128C"/>
</g>
<defs>
<clipPath id="clip0">
<rect width="81" height="81" fill="white" transform="translate(0 0.600586)"/>
</clipPath>
</defs>
</svg>
