<svg width="51" height="70" viewBox="0 0 51 70" fill="none" xmlns="http://www.w3.org/2000/svg">
<path d="M40.7567 1.75061H19.4745C17.849 1.75061 16.5312 3.42395 16.5312 5.48811V64.7131C16.5312 66.7773 17.849 68.4506 19.4745 68.4506H40.7567C42.3822 68.4506 43.7 66.7773 43.7 64.7131V5.48811C43.7 3.42395 42.3822 1.75061 40.7567 1.75061Z" fill="#FFE7EC"/>
<path d="M28.7499 7.50056H24.1499C23.8449 7.50056 23.5524 7.3794 23.3368 7.16373C23.1211 6.94807 22.9999 6.65556 22.9999 6.35056C22.9999 6.04556 23.1211 5.75306 23.3368 5.53739C23.5524 5.32172 23.8449 5.20056 24.1499 5.20056H28.7499C29.0549 5.20056 29.3474 5.32172 29.5631 5.53739C29.7788 5.75306 29.8999 6.04556 29.8999 6.35056C29.8999 6.65556 29.7788 6.94807 29.5631 7.16373C29.3474 7.3794 29.0549 7.50056 28.7499 7.50056Z" fill="#CBCBCB"/>
<path d="M34.4999 7.50056H33.3499C33.0449 7.50056 32.7524 7.3794 32.5368 7.16373C32.3211 6.94807 32.1999 6.65556 32.1999 6.35056C32.1999 6.04556 32.3211 5.75306 32.5368 5.53739C32.7524 5.32172 33.0449 5.20056 33.3499 5.20056H34.4999C34.8049 5.20056 35.0974 5.32172 35.3131 5.53739C35.5288 5.75306 35.6499 6.04556 35.6499 6.35056C35.6499 6.65556 35.5288 6.94807 35.3131 7.16373C35.0974 7.3794 34.8049 7.50056 34.4999 7.50056Z" fill="#CBCBCB"/>
<path d="M16.5312 10.9506C14.5891 10.9506 12.6898 11.6777 11.0687 13.0418C9.44772 14.4059 8.17634 16.3469 7.41231 18.624C6.64829 20.9011 6.42523 23.4142 6.7708 25.8515C7.11637 28.2888 8.01537 30.5431 9.35629 32.3348L7.5141 36.2506H16.5312C19.1618 36.2506 21.6847 34.9178 23.5449 32.5455C25.405 30.1731 26.45 26.9555 26.45 23.6006C26.45 20.2456 25.405 17.028 23.5449 14.6557C21.6847 12.2833 19.1618 10.9506 16.5312 10.9506Z" fill="#FFE7EC"/>
<path d="M39.6751 30.5006C41.589 30.5006 43.4608 31.2278 45.0583 32.5919C46.6559 33.9559 47.9088 35.8969 48.6618 38.174C49.4147 40.4511 49.6346 42.9642 49.294 45.4015C48.9534 47.8389 48.0675 50.0932 46.746 51.8849L48.5615 55.8006H39.6751C37.0826 55.8006 34.5962 54.4678 32.763 52.0955C30.9299 49.7232 29.9 46.5056 29.9 43.1506C29.9 39.7956 30.9299 36.578 32.763 34.2057C34.5962 31.8334 37.0826 30.5006 39.6751 30.5006Z" fill="#FFE7EC"/>
<path d="M36.7999 46.6005C37.4351 46.6005 37.9499 46.0857 37.9499 45.4505C37.9499 44.8154 37.4351 44.3005 36.7999 44.3005C36.1648 44.3005 35.6499 44.8154 35.6499 45.4505C35.6499 46.0857 36.1648 46.6005 36.7999 46.6005Z" fill="#C44C31"/>
<path d="M32.1999 46.6005C32.8351 46.6005 33.3499 46.0857 33.3499 45.4505C33.3499 44.8154 32.8351 44.3005 32.1999 44.3005C31.5648 44.3005 31.0499 44.8154 31.0499 45.4505C31.0499 46.0857 31.5648 46.6005 32.1999 46.6005Z" fill="#C44C31"/>
<path d="M41.3999 46.6005C42.0351 46.6005 42.5499 46.0857 42.5499 45.4505C42.5499 44.8154 42.0351 44.3005 41.3999 44.3005C40.7648 44.3005 40.2499 44.8154 40.2499 45.4505C40.2499 46.0857 40.7648 46.6005 41.3999 46.6005Z" fill="#C44C31"/>
<path d="M26.4499 56.9506C25.5401 56.9506 24.6508 57.2203 23.8943 57.7258C23.1379 58.2313 22.5483 58.9497 22.2001 59.7902C21.8519 60.6308 21.7608 61.5557 21.9383 62.448C22.1158 63.3403 22.5539 64.1599 23.1972 64.8033C23.8406 65.4466 24.6602 65.8847 25.5525 66.0622C26.4448 66.2397 27.3697 66.1486 28.2103 65.8004C29.0508 65.4522 29.7692 64.8627 30.2747 64.1062C30.7802 63.3497 31.0499 62.4604 31.0499 61.5506C31.0486 60.331 30.5635 59.1618 29.7011 58.2994C28.8387 57.437 27.6695 56.9519 26.4499 56.9506ZM26.4499 63.8506C25.995 63.8506 25.5504 63.7157 25.1721 63.4629C24.7939 63.2102 24.4991 62.851 24.325 62.4307C24.1509 62.0105 24.1054 61.548 24.1941 61.1019C24.2829 60.6557 24.5019 60.2459 24.8236 59.9242C25.1453 59.6026 25.5551 59.3835 26.0012 59.2948C26.4474 59.206 26.9098 59.2516 27.3301 59.4256C27.7504 59.5997 28.1096 59.8945 28.3623 60.2727C28.6151 60.651 28.7499 61.0957 28.7499 61.5506C28.7492 62.1603 28.5067 62.7449 28.0755 63.1761C27.6443 63.6073 27.0597 63.8498 26.4499 63.8506Z" fill="#300763"/>
<path d="M24.1499 7.50056H28.7499C29.0549 7.50056 29.3474 7.3794 29.5631 7.16373C29.7788 6.94807 29.8999 6.65556 29.8999 6.35056C29.8999 6.04556 29.7788 5.75306 29.5631 5.53739C29.3474 5.32172 29.0549 5.20056 28.7499 5.20056H24.1499C23.8449 5.20056 23.5524 5.32172 23.3368 5.53739C23.1211 5.75306 22.9999 6.04556 22.9999 6.35056C22.9999 6.65556 23.1211 6.94807 23.3368 7.16373C23.5524 7.3794 23.8449 7.50056 24.1499 7.50056Z" fill="#300763"/>
<path d="M33.3499 7.50056H34.4999C34.8049 7.50056 35.0974 7.3794 35.3131 7.16373C35.5288 6.94807 35.6499 6.65556 35.6499 6.35056C35.6499 6.04556 35.5288 5.75306 35.3131 5.53739C35.0974 5.32172 34.8049 5.20056 34.4999 5.20056H33.3499C33.0449 5.20056 32.7524 5.32172 32.5368 5.53739C32.3211 5.75306 32.1999 6.04556 32.1999 6.35056C32.1999 6.65556 32.3211 6.94807 32.5368 7.16373C32.7524 7.3794 33.0449 7.50056 33.3499 7.50056Z" fill="#300763"/>
<path d="M14.6131 30.8538L20.6557 24.8113C21.0379 24.4335 21.3416 23.9838 21.5495 23.4882C21.7573 22.9925 21.8651 22.4607 21.8666 21.9233C21.8682 21.3858 21.7635 20.8534 21.5585 20.3566C21.3536 19.8597 21.0524 19.4083 20.6724 19.0283C20.2924 18.6483 19.841 18.3471 19.3442 18.1421C18.8473 17.9372 18.3149 17.8325 17.7775 17.834C17.24 17.8355 16.7082 17.9433 16.2126 18.1511C15.7169 18.3589 15.2673 18.6627 14.8894 19.0449L13.7999 20.1344L12.7105 19.0449C11.9443 18.2875 10.9095 17.8642 9.83216 17.8673C8.75483 17.8704 7.72251 18.2998 6.96073 19.0616C6.19895 19.8234 5.76961 20.8557 5.76652 21.933C5.76342 23.0103 6.18682 24.0451 6.94421 24.8113L12.9867 30.8538C13.0935 30.9606 13.2203 31.0453 13.3598 31.1031C13.4994 31.1609 13.6489 31.1907 13.7999 31.1907C13.951 31.1907 14.1005 31.1609 14.24 31.1031C14.3796 31.0453 14.5063 30.9606 14.6131 30.8538ZM8.5706 23.1847C8.23729 22.8514 8.05005 22.3993 8.05007 21.928C8.05008 21.4566 8.23735 21.0045 8.57067 20.6712C8.904 20.3379 9.35608 20.1507 9.82746 20.1507C10.2988 20.1507 10.7509 20.338 11.0842 20.6713L12.9867 22.5738C13.0935 22.6806 13.2203 22.7653 13.3598 22.8231C13.4994 22.8809 13.6489 22.9107 13.7999 22.9107C13.951 22.9107 14.1005 22.8809 14.24 22.8231C14.3796 22.7653 14.5063 22.6806 14.6131 22.5738L16.5158 20.6711C16.6809 20.5061 16.8768 20.3752 17.0924 20.2859C17.3081 20.1966 17.5392 20.1506 17.7726 20.1506C18.006 20.1506 18.2371 20.1966 18.4527 20.2859C18.6684 20.3752 18.8643 20.5062 19.0293 20.6712C19.1944 20.8363 19.3253 21.0322 19.4146 21.2478C19.5039 21.4635 19.5499 21.6946 19.5499 21.928C19.5499 22.1614 19.5039 22.3925 19.4146 22.6082C19.3252 22.8238 19.1943 23.0197 19.0293 23.1847L13.7999 28.4142L8.5706 23.1847Z" fill="#300763"/>
<path d="M44.8499 31.9486V5.48809C44.8485 4.19228 44.3331 2.94997 43.4168 2.0337C42.5006 1.11743 41.2582 0.602032 39.9624 0.600586H12.9374C11.6416 0.602032 10.3993 1.11743 9.48305 2.0337C8.56678 2.94997 8.05139 4.19228 8.04994 5.48809V11.0571C6.11895 11.9421 4.41832 13.2609 3.08055 14.9109C1.74277 16.5608 0.803953 18.4973 0.337227 20.5695C-0.129499 22.6417 -0.111535 24.7937 0.389722 26.8579C0.890978 28.922 1.86199 30.8426 3.22713 32.47L1.31382 35.6589C1.20911 35.8334 1.15259 36.0326 1.15002 36.2361C1.14745 36.4396 1.19893 36.6401 1.2992 36.8172C1.39947 36.9943 1.54494 37.1416 1.72075 37.2441C1.89657 37.3466 2.09643 37.4006 2.29994 37.4006H8.04994V64.7131C8.05139 66.0089 8.56678 67.2512 9.48305 68.1675C10.3993 69.0837 11.6416 69.5991 12.9374 69.6006H39.9624C41.2582 69.5991 42.5006 69.0837 43.4168 68.1675C44.3331 67.2512 44.8485 66.0089 44.8499 64.7131V56.9506H48.2999C48.5035 56.9506 48.7033 56.8966 48.8791 56.7941C49.0549 56.6916 49.2004 56.5443 49.3007 56.3672C49.401 56.1901 49.4524 55.9896 49.4499 55.7861C49.4473 55.5826 49.3908 55.3834 49.2861 55.2089L47.3728 52.02C48.5935 50.5652 49.5007 48.874 50.0375 47.0524C50.5742 45.2308 50.7291 43.3179 50.4922 41.4336C50.2554 39.5494 49.632 37.7343 48.6611 36.1022C47.6902 34.47 46.3927 33.056 44.8499 31.9486ZM10.3499 5.48809C10.3507 4.80208 10.6236 4.14441 11.1087 3.65933C11.5938 3.17425 12.2514 2.90138 12.9374 2.90059H39.9624C40.6484 2.90138 41.3061 3.17425 41.7912 3.65933C42.2763 4.14441 42.5491 4.80208 42.5499 5.48809V10.9506H19.312C16.4879 9.71971 13.3332 9.46863 10.3499 10.2373V5.48809ZM42.5499 13.2506V30.6071C39.5401 29.2253 36.1337 28.9725 32.9529 29.8949C29.7721 30.8172 27.0292 32.8531 25.2255 35.6307C23.4218 38.4082 22.6775 41.742 23.1287 45.0229C23.5799 48.3039 25.1964 51.313 27.6829 53.5006H10.3499V37.4006H13.7999C16.6037 37.402 19.3414 36.5488 21.648 34.9549C23.9547 33.361 25.7208 31.102 26.7111 28.4789C27.7014 25.8558 27.8687 22.9932 27.1909 20.2725C26.5131 17.5519 25.0222 15.1025 22.917 13.2506H42.5499ZM4.33098 35.1006L5.63552 32.9265C5.76514 32.7105 5.82024 32.4579 5.79235 32.2075C5.76445 31.9571 5.65511 31.7228 5.48113 31.5406C3.6521 29.6243 2.54075 27.1353 2.33491 24.4942C2.12906 21.8531 2.84135 19.2219 4.35139 17.0453C5.86143 14.8688 8.07661 13.2803 10.6226 12.5483C13.1685 11.8163 15.8891 11.9858 18.3246 13.028C20.76 14.0702 22.761 15.9213 23.9893 18.2685C25.2176 20.6156 25.5978 23.3148 25.0659 25.9099C24.5339 28.5051 23.1223 30.837 21.0696 32.5115C19.0169 34.1861 16.449 35.1006 13.7999 35.1006H4.33098ZM42.5499 64.7131C42.5491 65.3991 42.2763 66.0568 41.7912 66.5418C41.3061 67.0269 40.6484 67.2998 39.9624 67.3006H12.9374C12.2514 67.2998 11.5938 67.0269 11.1087 66.5418C10.6236 66.0568 10.3507 65.3991 10.3499 64.7131V55.8006H31.2878C33.0259 56.5609 34.9028 56.9525 36.7999 56.9506H42.5499V64.7131ZM44.9649 52.4765L46.2689 54.6506H36.7999C34.1508 54.6506 31.583 53.7361 29.5303 52.0615C27.4776 50.387 26.066 48.0551 25.534 45.4599C25.002 42.8648 25.3823 40.1656 26.6106 37.8185C27.8389 35.4713 29.8398 33.6202 32.2753 32.578C34.7108 31.5358 37.4314 31.3663 39.9773 32.0983C42.5233 32.8303 44.7385 34.4188 46.2485 36.5953C47.7585 38.7719 48.4708 41.4031 48.265 44.0442C48.0591 46.6852 46.9478 49.1743 45.1188 51.0906C44.9449 51.2729 44.8356 51.5072 44.8078 51.7576C44.7801 52.008 44.8352 52.2605 44.9649 52.4765Z" fill="#300763"/>
<path d="M36.7999 46.6005C37.4351 46.6005 37.9499 46.0857 37.9499 45.4505C37.9499 44.8154 37.4351 44.3005 36.7999 44.3005C36.1648 44.3005 35.6499 44.8154 35.6499 45.4505C35.6499 46.0857 36.1648 46.6005 36.7999 46.6005Z" fill="#300763"/>
<path d="M32.1999 46.6005C32.8351 46.6005 33.3499 46.0857 33.3499 45.4505C33.3499 44.8154 32.8351 44.3005 32.1999 44.3005C31.5648 44.3005 31.0499 44.8154 31.0499 45.4505C31.0499 46.0857 31.5648 46.6005 32.1999 46.6005Z" fill="#300763"/>
<path d="M41.3999 46.6005C42.0351 46.6005 42.5499 46.0857 42.5499 45.4505C42.5499 44.8154 42.0351 44.3005 41.3999 44.3005C40.7648 44.3005 40.2499 44.8154 40.2499 45.4505C40.2499 46.0857 40.7648 46.6005 41.3999 46.6005Z" fill="#300763"/>
</svg>
