<svg width="49" height="50" viewBox="0 0 49 50" fill="none" xmlns="http://www.w3.org/2000/svg">
<path d="M48.4877 14.8952C48.3738 12.3118 47.956 10.5357 47.3576 8.99674C46.7402 7.36315 45.7904 5.90059 44.546 4.68476C43.3302 3.45001 41.858 2.49056 40.2433 1.88283C38.6954 1.28437 36.9286 0.866606 34.3452 0.752704C31.7425 0.629154 30.9163 0.600586 24.3151 0.600586C17.7139 0.600586 16.8877 0.629154 14.2946 0.743057C11.7112 0.85696 9.93514 1.2751 8.39653 1.87318C6.76256 2.49056 5.3 3.44036 4.08418 4.68476C2.84942 5.90059 1.89034 7.37279 1.28224 8.98747C0.683788 10.5357 0.26602 12.3022 0.152118 14.8856C0.0285684 17.4883 0 18.3145 0 24.9157C0 31.5168 0.0285684 32.3431 0.142471 34.9362C0.256374 37.5196 0.674512 39.2956 1.27297 40.8346C1.89034 42.4682 2.84942 43.9308 4.08418 45.1466C5.3 46.3814 6.77221 47.3408 8.38688 47.9485C9.93514 48.547 11.7016 48.9648 14.2853 49.0787C16.878 49.1929 17.7046 49.2211 24.3058 49.2211C30.907 49.2211 31.7332 49.1929 34.3263 49.0787C36.9097 48.9648 38.6858 48.547 40.2244 47.9485C43.4919 46.6852 46.0753 44.1018 47.3387 40.8346C47.9367 39.2864 48.3549 37.5196 48.4688 34.9362C48.5827 32.3431 48.6113 31.5168 48.6113 24.9157C48.6113 18.3145 48.6016 17.4883 48.4877 14.8952ZM44.1093 34.7462C44.0047 37.1207 43.6058 38.403 43.2734 39.2578C42.4564 41.3759 40.7753 43.057 38.6572 43.874C37.8024 44.2064 36.5108 44.6053 34.1456 44.7095C31.5811 44.8238 30.812 44.852 24.3247 44.852C17.8375 44.852 17.0587 44.8238 14.5035 44.7095C12.129 44.6053 10.8467 44.2064 9.99191 43.874C8.93784 43.4844 7.97839 42.8671 7.19962 42.0597C6.39228 41.2713 5.77491 40.3215 5.38534 39.2674C5.05291 38.4126 4.65406 37.1207 4.5498 34.7558C4.43553 32.1914 4.40733 31.4219 4.40733 24.9346C4.40733 18.4473 4.43553 17.6686 4.5498 15.1137C4.65406 12.7392 5.05291 11.457 5.38534 10.6021C5.77491 9.54771 6.39228 8.58862 7.20927 7.80948C7.99731 7.00215 8.94712 6.38477 10.0016 5.99557C10.8564 5.66314 12.1483 5.26429 14.5131 5.15967C17.0776 5.04576 17.8471 5.0172 24.334 5.0172C30.8309 5.0172 31.6 5.04576 34.1553 5.15967C36.5298 5.26429 37.812 5.66314 38.6668 5.99557C39.7209 6.38477 40.6804 7.00215 41.4591 7.80948C42.2665 8.5979 42.8838 9.54771 43.2734 10.6021C43.6058 11.457 44.0047 12.7485 44.1093 15.1137C44.2232 17.6782 44.2518 18.4473 44.2518 24.9346C44.2518 31.4219 44.2232 32.1817 44.1093 34.7462Z" fill="white"/>
<path d="M24.3151 12.4258C17.4197 12.4258 11.8251 18.02 11.8251 24.9158C11.8251 31.8115 17.4197 37.4057 24.3151 37.4057C31.2108 37.4057 36.805 31.8115 36.805 24.9158C36.805 18.02 31.2108 12.4258 24.3151 12.4258ZM24.3151 33.0177C19.8417 33.0177 16.2131 29.3895 16.2131 24.9158C16.2131 20.442 19.8417 16.8138 24.3151 16.8138C28.7888 16.8138 32.417 20.442 32.417 24.9158C32.417 29.3895 28.7888 33.0177 24.3151 33.0177Z" fill="white"/>
<path d="M40.2151 11.9318C40.2151 13.5421 38.9095 14.8477 37.2989 14.8477C35.6887 14.8477 34.383 13.5421 34.383 11.9318C34.383 10.3212 35.6887 9.01599 37.2989 9.01599C38.9095 9.01599 40.2151 10.3212 40.2151 11.9318Z" fill="white"/>
</svg>
