<svg width="74" height="81" viewBox="0 0 74 81" fill="none" xmlns="http://www.w3.org/2000/svg">
<path d="M73.3464 18.2521L37.5028 0.717071C37.185 0.561758 36.815 0.561758 36.4974 0.717071L0.6536 18.2521C0.253946 18.4476 0 18.8577 0 19.3074V61.8933C0 62.343 0.253946 62.7532 0.6536 62.9487L36.4972 80.484C36.656 80.5617 36.8281 80.6006 37 80.6006C37.1719 80.6006 37.3438 80.5617 37.5028 80.484L73.3464 62.9487C73.7461 62.7532 74 62.343 74 61.8933V19.3076C74 18.8577 73.7459 18.4477 73.3464 18.2521ZM37 3.07364L70.1837 19.3076L60.5644 24.0135C60.5035 23.9665 60.4392 23.9231 60.3686 23.8885L27.4103 7.76506L37 3.07364ZM24.7987 9.09006L57.9342 25.3004L51.1476 28.6206L18.0259 12.4166L24.7987 9.09006ZM52.3703 30.625L58.7094 27.5237V39.7966L52.3703 42.8978V30.625ZM38.1564 77.5618V37.5784L46.1546 33.6656C46.7297 33.3842 46.9708 32.6837 46.6931 32.1008C46.4154 31.5181 45.7242 31.2734 45.149 31.555L37 35.5417L33.7935 33.9729C33.2183 33.6912 32.527 33.9359 32.2493 34.5187C31.9716 35.1015 32.2128 35.8022 32.7879 36.0836L35.8436 37.5784V77.5617L2.31281 61.1579V21.1745L27.8462 33.6659C28.0083 33.7453 28.1796 33.7828 28.3481 33.7828C28.778 33.7828 29.1909 33.5387 29.3902 33.1201C29.6679 32.5373 29.4268 31.8367 28.8517 31.5553L3.81629 19.3074L15.304 13.6874L50.0415 30.6818C50.0466 30.689 50.0523 30.6954 50.0575 30.7025V44.7649C50.0575 45.1681 50.2621 45.543 50.5992 45.7575C50.7863 45.8766 50.9999 45.9367 51.2141 45.9367C51.3855 45.9367 51.5574 45.8981 51.7167 45.8202L60.3686 41.5875C60.7683 41.392 61.0222 40.982 61.0222 40.5322V26.3923L71.6872 21.1748V61.1582L38.1564 77.5618Z" fill="#300862"/>
</svg>
