<svg width="77" height="78" viewBox="0 0 77 78" fill="none" xmlns="http://www.w3.org/2000/svg">
<g clip-path="url(#clip0)">
<path d="M12.528 33.1843L3.0418 25.671L1.85687 26.3042L9.25501 70.8995C9.41728 71.8776 10.2632 72.5948 11.2547 72.5948C10.001 64.2158 7.73276 41.4955 12.528 35.2143V33.1843Z" fill="#FFE7EC"/>
<path d="M7.86733 6.46119C8.8975 5.29341 6.85968 9.06858 7.86263 10.2598C11.0247 14.0149 17.7439 23.0133 23.6816 37.7054C31.4472 56.9207 43.0507 70.179 59.2539 61.0577C62.3369 59.4786 76.144 64.1117 73.3453 65.3804C68.9589 67.3687 62.8451 69.7763 55.7859 71.541C49.6502 73.075 44.1853 72.7236 39.9424 71.8207C34.8281 70.7322 30.7423 66.8897 29.329 61.8554C22.9502 39.1325 5.62516 28.406 1.85684 26.3041C1.40146 26.0501 1.12113 25.5669 1.1285 25.0453C1.26265 15.4408 5.31852 9.35033 7.86733 6.46119Z" fill="#FFE7EC"/>
<path d="M73.8158 56.5114C70.7766 55.122 67.218 53.7797 63.2381 52.5219C61.5304 51.7999 59.5552 51.8394 57.6253 52.9159C52.7674 53.1908 48.4638 52.1821 44.8313 49.9109C44.3033 49.5808 43.6071 49.7412 43.277 50.2693C42.9467 50.7975 43.1072 51.4935 43.6355 51.8236C46.4385 53.5761 49.5844 54.6544 53.0311 55.0487C37.0539 60.8052 32.6423 41.5199 25.5176 26.5233C34.7562 40.4042 34.7404 43.5007 39.2753 48.2519C39.7054 48.7024 40.4191 48.7188 40.87 48.289C41.3206 47.8589 41.3371 47.145 40.907 46.6943C39.3882 45.103 38.0221 43.1884 36.8465 41.0034C29.4201 27.2015 21.8363 16.7666 12.5919 5.78712C11.1457 4.07011 8.50787 4.02996 7.02126 5.71478C4.45922 8.61896 0.140467 14.9899 0.000303806 25.0298C-0.00977233 25.7613 0.294316 26.4485 0.817523 26.9324L8.14197 71.0839C8.39568 72.6129 9.70467 73.7225 11.2543 73.7225C13.0815 73.7225 14.5298 72.1694 14.4015 70.3461L13.4124 56.2873C13.3686 55.6659 12.8286 55.1976 12.2081 55.2414C11.5867 55.2851 11.1183 55.8243 11.1621 56.4457L12.1512 70.5046C12.1878 71.0257 11.7761 71.4667 11.2543 71.4667C10.8126 71.4667 10.4396 71.1504 10.3673 70.7147L3.36979 28.5333C6.01094 30.2297 10.2981 33.3517 14.6963 38.0956C12.052 41.8998 10.6765 46.4927 10.8082 51.135C10.8255 51.7468 11.3269 52.2309 11.9351 52.2309C11.9459 52.2309 11.9569 52.2307 11.9677 52.2304C12.5905 52.2127 13.0808 51.6937 13.0632 51.0709C12.9502 47.091 14.0743 43.1518 16.2462 39.8326C20.9548 45.3159 25.5814 52.6787 28.243 62.1599C29.7757 67.6204 34.1688 71.7447 39.7073 72.9236C44.968 74.0431 50.4739 74.0313 56.0594 72.6349C63.4557 70.7858 69.7951 68.2277 73.8108 66.4074C78.0676 64.4777 78.0569 58.4501 73.8158 56.5114ZM55.5123 70.4466C50.445 71.7133 45.2853 71.8044 40.177 70.7173C35.4611 69.7136 31.7204 66.2011 30.4147 61.5502C27.7602 52.094 22.9199 43.709 16.9972 37.248C12.9969 32.8032 7.6508 28.2431 2.40594 25.3189C2.31195 25.2664 2.25435 25.1676 2.25585 25.0611C2.38609 15.7479 6.35714 9.87742 8.7127 7.2071C9.28975 6.55335 10.3101 6.57967 10.866 7.24018C25.6451 24.7928 27.9318 44.088 37.1605 53.6716C43.5296 60.2704 50.9237 59.2772 58.881 54.7989C59.9556 54.1939 61.2692 54.1252 62.3952 54.6149C62.6551 54.7273 67.7731 56.2293 72.8777 58.5629C75.3689 59.7018 75.3777 63.2203 72.8793 64.3528C68.9486 66.1347 62.7448 68.6384 55.5123 70.4466Z" fill="#300763"/>
</g>
<defs>
<clipPath id="clip0">
<rect width="77" height="77" fill="white" transform="translate(0 0.600586)"/>
</clipPath>
</defs>
</svg>
