<svg width="374" height="374" viewBox="0 0 374 374" fill="none" xmlns="http://www.w3.org/2000/svg">
<path d="M187 367C286.411 367 367 286.411 367 187C367 87.5887 286.411 7 187 7C87.5887 7 7 87.5887 7 187C7 286.411 87.5887 367 187 367Z" fill="#46ABD2"/>
<path d="M209.63 187L266.726 129.908C269.727 126.907 271.413 122.837 271.413 118.593C271.414 114.349 269.728 110.279 266.728 107.278C263.727 104.276 259.657 102.59 255.413 102.59C251.169 102.589 247.099 104.275 244.098 107.276L187.002 164.372L129.906 107.276C128.42 105.79 126.655 104.611 124.714 103.807C122.772 103.003 120.692 102.59 118.59 102.59C116.489 102.59 114.408 103.004 112.467 103.808C110.525 104.613 108.761 105.792 107.276 107.278C105.79 108.764 104.611 110.528 103.807 112.469C103.003 114.411 102.59 116.492 102.59 118.593C102.59 120.694 103.004 122.775 103.808 124.717C104.613 126.658 105.792 128.422 107.278 129.908L164.374 187L107.278 244.092C104.276 247.092 102.59 251.162 102.59 255.406C102.59 257.508 103.003 259.588 103.807 261.53C104.611 263.472 105.79 265.236 107.276 266.722C108.761 268.208 110.525 269.387 112.467 270.191C114.408 270.995 116.489 271.409 118.59 271.409C122.834 271.41 126.904 269.724 129.906 266.724L187.002 209.628L244.098 266.724C247.099 269.724 251.169 271.41 255.413 271.409C259.657 271.409 263.727 269.723 266.728 266.722C269.728 263.72 271.414 259.65 271.413 255.406C271.413 251.162 269.727 247.092 266.726 244.092L209.63 187Z" fill="white"/>
<path d="M187 0C156.518 0.000663844 126.498 7.45291 99.554 21.7078C72.6103 35.9627 49.5598 56.5881 32.4095 81.788C15.2593 106.988 4.52931 135.998 1.15395 166.293C-2.22142 196.588 1.86015 227.248 13.0433 255.605C24.2264 283.962 42.1719 309.155 65.3173 328.991C88.4628 348.826 116.106 362.703 145.841 369.413C175.575 376.123 206.499 375.462 235.92 367.489C265.341 359.515 292.367 344.47 314.644 323.664C316.001 322.397 316.799 320.642 316.862 318.787C316.925 316.932 316.249 315.127 314.982 313.77C313.715 312.413 311.96 311.615 310.105 311.552C308.249 311.488 306.445 312.165 305.088 313.432C274.043 342.354 233.427 358.818 191.006 359.676C148.586 360.535 107.337 345.727 75.1469 318.086C42.957 290.444 22.0849 251.907 16.5213 209.844C10.9578 167.781 21.0933 125.143 44.9898 90.0833C68.8862 55.0232 104.867 30.0011 146.052 19.8014C187.237 9.60164 230.737 14.94 268.234 34.7957C305.73 54.6514 334.593 87.6312 349.303 127.429C364.012 167.227 363.537 211.05 347.968 250.52C347.63 251.375 347.465 252.288 347.48 253.208C347.496 254.127 347.692 255.034 348.058 255.877C348.424 256.721 348.953 257.484 349.613 258.123C350.274 258.762 351.055 259.264 351.91 259.602C352.765 259.939 353.678 260.105 354.598 260.09C355.517 260.074 356.424 259.878 357.267 259.512C358.111 259.146 358.874 258.617 359.513 257.956C360.152 257.295 360.654 256.515 360.992 255.66C372.159 227.297 376.228 196.635 372.844 166.341C369.46 136.047 358.726 107.038 341.576 81.8378C324.426 56.6376 301.378 36.009 274.439 21.7462C247.499 7.48333 217.482 0.0181827 187 0V0Z" fill="#0266AB"/>
<path d="M341.801 279.125C340.243 278.116 338.347 277.767 336.531 278.154C334.715 278.542 333.128 279.635 332.117 281.193L330.801 283.193C330.289 283.958 329.932 284.815 329.75 285.718C329.569 286.62 329.568 287.549 329.745 288.452C329.923 289.355 330.277 290.214 330.787 290.98C331.297 291.746 331.953 292.405 332.717 292.917C333.482 293.43 334.339 293.787 335.242 293.968C336.144 294.149 337.073 294.151 337.976 293.973C338.879 293.795 339.738 293.441 340.504 292.931C341.271 292.421 341.929 291.766 342.441 291.001C342.929 290.273 343.413 289.549 343.885 288.821C344.386 288.048 344.729 287.184 344.895 286.278C345.061 285.372 345.047 284.442 344.853 283.541C344.66 282.641 344.291 281.787 343.767 281.029C343.243 280.272 342.575 279.625 341.801 279.125Z" fill="#0266AB"/>
</svg>
