<svg width="50" height="50" viewBox="0 0 50 50" fill="none" xmlns="http://www.w3.org/2000/svg">
<path d="M35.8441 29.5859L35.8257 29.7379C31.3234 27.5175 30.8525 27.2218 30.271 28.0848C29.8677 28.6824 28.6925 30.0377 28.3383 30.4388C27.98 30.8339 27.6237 30.8643 27.0157 30.5908C26.4014 30.2869 24.4298 29.6487 22.0957 27.5824C20.2776 25.9718 19.0574 23.9966 18.697 23.3888C18.0971 22.3637 19.3522 22.2179 20.4946 20.0786C20.6994 19.6531 20.595 19.3189 20.4435 19.017C20.2899 18.7131 19.0676 15.7351 18.5557 14.548C18.0644 13.3649 17.5586 13.5148 17.1799 13.5148C16.0006 13.4135 15.1386 13.4297 14.379 14.2117C11.0745 17.8055 11.9078 21.5129 14.7353 25.4552C20.2919 32.6511 23.2525 33.976 28.6659 35.8155C30.1277 36.2753 31.4606 36.2105 32.515 36.0606C33.6902 35.8762 36.1328 34.5999 36.6426 33.1717C37.1647 31.7435 37.1647 30.5583 37.0111 30.2849C36.8596 30.0114 36.4583 29.8594 35.8441 29.5859Z" fill="white"/>
<path d="M42.0129 7.58866C26.2704 -7.46957 0.217026 3.45185 0.206789 24.695C0.206789 28.9412 1.33082 33.0821 3.47241 36.7388L0 49.2222L12.9704 45.8754C29.1552 54.5259 49.1297 43.0392 49.1379 24.7072C49.1379 18.2731 46.5991 12.2178 41.9822 7.66767L42.0129 7.58866ZM45.0472 24.6403C45.0349 40.1038 27.8796 49.761 14.3114 41.8683L13.5744 41.4347L5.89655 43.41L7.9542 36.0257L7.46487 35.266C-0.978664 21.9662 8.72198 4.58431 24.7164 4.58431C30.1502 4.58431 35.2503 6.68108 39.0913 10.4796C42.9302 14.2456 45.0472 19.2921 45.0472 24.6403Z" fill="white"/>
</svg>
