<svg width="29" height="27" viewBox="0 0 29 27" fill="none" xmlns="http://www.w3.org/2000/svg">
<path d="M20.3594 1.60059C19.0028 1.60059 17.759 2.04858 16.6627 2.93214C15.6117 3.77923 14.912 4.85814 14.5 5.64268C14.088 4.85809 13.3883 3.77923 12.3373 2.93214C11.241 2.04858 9.99722 1.60059 8.64062 1.60059C4.85488 1.60059 2 4.82756 2 9.10683C2 13.7299 5.56167 16.893 10.9536 21.6814C11.8692 22.4946 12.907 23.4163 13.9857 24.3994C14.1279 24.5291 14.3105 24.6006 14.5 24.6006C14.6895 24.6006 14.8721 24.5291 15.0143 24.3994C16.0931 23.4162 17.1309 22.4946 18.047 21.6809C23.4383 16.893 27 13.7299 27 9.10683C27 4.82756 24.1451 1.60059 20.3594 1.60059Z" stroke="white" stroke-width="3"/>
</svg>
