<svg width="82" height="83" viewBox="0 0 82 83" fill="none" xmlns="http://www.w3.org/2000/svg">
<g clip-path="url(#clip0)">
<path d="M80.8788 70.5889H9.60938V66.6071C9.60938 65.7105 10.2575 64.9835 11.0573 64.9835H79.431C80.2306 64.9835 80.8789 65.7103 80.8789 66.6071V70.5889H80.8788Z" fill="#FFE6EC"/>
<path d="M19.0647 75.0733H10.0838C9.46801 75.0733 8.96875 74.385 8.96875 73.5358V70.5889H20.1797V73.5358C20.1797 74.385 19.6805 75.0733 19.0647 75.0733Z" fill="#FFE6EC"/>
<path d="M47.3 75.0733H38.7039C38.1146 75.0733 37.6367 74.385 37.6367 73.5358V70.5889H48.3672V73.5358C48.3672 74.385 47.8893 75.0733 47.3 75.0733Z" fill="#FFE6EC"/>
<path d="M76.0484 75.0733H66.8109C66.1776 75.0733 65.6641 74.385 65.6641 73.5358V70.5889H77.1953V73.5358C77.1952 74.385 76.6818 75.0733 76.0484 75.0733Z" fill="#FFE6EC"/>
<path d="M35.5547 64.9835H14.8945V45.9176C14.8945 45.4793 15.2018 45.1241 15.581 45.1241H35.5547V64.9835Z" fill="#FFE6EC"/>
<path d="M35.5547 45.1241H56.2148V64.9835H35.5547V45.1241Z" fill="#FFE6EC"/>
<path d="M76.7148 64.9835H56.2148V45.1241H76.0337C76.41 45.1241 76.7148 45.4793 76.7148 45.9176V64.9835Z" fill="#FFE6EC"/>
<path d="M46.6055 45.1241H24.9844V34.5473C24.9844 34.1085 25.2645 33.753 25.6102 33.753H46.6055V45.1241Z" fill="#FFE6EC"/>
<path d="M68.3867 45.1241H46.6055V33.753H67.7563C68.1045 33.753 68.3867 34.1085 68.3867 34.5473V45.1241Z" fill="#FFE6EC"/>
<path d="M54.6133 33.753H33.9531V9.42196C33.9531 8.70726 34.3912 8.12799 34.9316 8.12799H53.6348C54.1752 8.12799 54.6133 8.70726 54.6133 9.42196V33.753Z" fill="#FFE6EC"/>
<path d="M79.1817 63.7757H77.9641V45.9434C77.9641 44.8443 77.0699 43.9501 75.9708 43.9501H69.5685V34.6032C69.5685 33.5042 68.6744 32.6101 67.5752 32.6101H65.2749C64.6114 32.6101 64.0737 33.1477 64.0737 33.8113C64.0737 34.4748 64.6114 35.0124 65.2749 35.0124H67.1663V43.9503H67.0664C64.1306 43.9503 44.624 43.9503 42.2013 43.9503V35.0124H51.2095V38.6523C51.2095 39.7718 52.1203 40.6826 53.2398 40.6826H56.1279C57.2474 40.6826 58.1582 39.7718 58.1582 38.6523V35.0124H60.4724C61.136 35.0124 61.6736 34.4748 61.6736 33.8113C61.6736 33.1477 61.136 32.6101 60.4724 32.6101C58.7588 32.6101 57.6004 32.6101 55.8849 32.6101V9.43933C55.8849 8.06231 54.7646 6.94202 53.3876 6.94202C49.7362 6.94202 32.2231 6.94202 28.6127 6.94202C27.2355 6.94202 26.1152 8.06231 26.1152 9.43933V13.7847C26.1152 14.4482 26.6529 14.9859 27.3164 14.9859C27.9799 14.9859 28.5176 14.4482 28.5176 13.7847V9.43933C28.5176 9.38696 28.5603 9.34436 28.6127 9.34436H37.1079V13.9785C37.1079 15.2849 38.1707 16.3477 39.4771 16.3477H42.5232C43.8296 16.3477 44.8926 15.2849 44.8926 13.9785V9.34436H53.3878C53.4401 9.34436 53.4827 9.38696 53.4827 9.43933V32.6101C44.7605 32.6101 36.0928 32.6101 28.5177 32.6101V18.5875C28.5177 17.9239 27.9801 17.3863 27.3166 17.3863C26.653 17.3863 26.1154 17.9239 26.1154 18.5875V32.6101C24.7371 32.6101 16.4908 32.6101 14.4251 32.6101C13.3261 32.6101 12.432 33.5042 12.432 34.6034V43.9501H6.02924C4.93025 43.9501 4.0361 44.8443 4.0361 45.9434V63.7757H2.81827C1.26427 63.7757 0 65.04 0 66.594V70.5598C0 71.2233 0.537645 71.7609 1.20117 71.7609H3.57469V73.5159C3.57469 75.0286 4.80549 76.2594 6.31816 76.2594H18.7407C20.2534 76.2594 21.4842 75.0286 21.4842 73.5159V71.7609H32.0452V73.5159C32.0452 75.0286 33.276 76.2594 34.7887 76.2594H38.5986C39.2621 76.2594 39.7998 75.7218 39.7998 75.0582C39.7998 74.3947 39.2621 73.8571 38.5986 73.8571H34.7887C34.6005 73.8571 34.4475 73.7041 34.4475 73.5159V71.7609H47.5523V73.5159C47.5523 73.7041 47.3994 73.8571 47.2112 73.8571H43.4012C42.7377 73.8571 42.2001 74.3947 42.2001 75.0582C42.2001 75.7218 42.7377 76.2594 43.4012 76.2594H47.2112C48.7239 76.2594 49.9547 75.0286 49.9547 73.5159V71.7609H60.5157V73.5159C60.5157 75.0286 61.7465 76.2594 63.2592 76.2594H75.6817C77.1944 76.2594 78.4251 75.0286 78.4251 73.5159V71.7609H80.7988C81.4624 71.7609 82 71.2233 82 70.5598V66.594C82 65.04 80.7357 63.7757 79.1817 63.7757ZM42.4901 13.9452H39.5102V9.34436H42.4901V13.9452ZM75.5617 63.7757H54.1222V46.3525H61.4166V51.2939C61.4166 52.3516 62.2769 53.212 63.3346 53.212H66.3495C67.4072 53.212 68.2676 52.3516 68.2676 51.2939V46.3525H75.5619V63.7757H75.5617ZM65.8651 46.3525V50.8094H63.8189V46.3525H65.8651ZM51.7199 63.7757H30.2803V46.3525H37.5746V51.2939C37.5746 52.3516 38.4349 53.212 39.4926 53.212H42.5075C43.5652 53.212 44.4256 52.3516 44.4256 51.2939V46.3525H51.7199V63.7757ZM42.0232 46.3525V50.8094H39.9771V46.3525H42.0232ZM55.7557 38.2801H53.6117V35.0124H55.7557V38.2801ZM26.2445 35.0123H28.3883V38.2799H26.2445V35.0123ZM14.834 35.0123H23.8421V38.6521C23.8421 39.7716 24.753 40.6824 25.8723 40.6824H28.7604C29.8799 40.6824 30.7907 39.7716 30.7907 38.6521V35.0123H39.7988V43.9501C30.9177 43.9501 22.4166 43.9501 14.834 43.9501V35.0123ZM16.1351 46.3525H18.1813V50.8094H16.1351V46.3525ZM6.43844 46.3525H13.7328V51.2939C13.7328 52.3516 14.5931 53.212 15.6508 53.212H18.6656C19.7232 53.212 20.5838 52.3516 20.5838 51.2939V46.3525H27.8781V63.7757H6.43844V46.3525ZM19.082 73.5158C19.082 73.7039 18.929 73.8569 18.7408 73.8569H6.31816C6.12998 73.8569 5.97703 73.7039 5.97703 73.5158V71.7608H19.0818V73.5158H19.082ZM76.0231 73.5158C76.0231 73.7039 75.8702 73.8569 75.682 73.8569H63.2595C63.0713 73.8569 62.9183 73.7039 62.9183 73.5158V71.7608H76.0231V73.5158ZM79.5977 69.3584C53.9368 69.3584 28.2693 69.3584 2.40234 69.3584V66.5938C2.40234 66.3645 2.58893 66.1779 2.81827 66.1779H79.1819C79.4112 66.1779 79.5978 66.3645 79.5978 66.5938V69.3584H79.5977Z" fill="#48128C"/>
<path d="M47.7081 29.7747C48.3717 29.7747 48.9093 29.237 48.9093 28.5735V27.7336C49.0591 27.7969 49.2163 27.831 49.3736 27.831C49.7497 27.831 50.1198 27.655 50.3541 27.3252C50.7381 26.7844 50.611 26.0344 50.0703 25.6503L48.4037 24.4666C47.987 24.171 47.4293 24.171 47.0126 24.4666L45.346 25.6503C44.8052 26.0344 44.678 26.7844 45.0622 27.3252C45.3944 27.7927 45.9996 27.9503 46.507 27.7365V28.5735C46.507 29.237 47.0446 29.7747 47.7081 29.7747Z" fill="#48128C"/>
<path d="M24.7816 58.2114L23.115 57.0278C22.6983 56.7322 22.1406 56.7322 21.7239 57.0278L20.0575 58.2114C19.5166 58.5954 19.3895 59.3455 19.7737 59.8863C20.008 60.2162 20.3781 60.3921 20.7542 60.3921C20.9114 60.3921 21.0687 60.358 21.2183 60.2947V61.1347C21.2183 61.7982 21.7559 62.3359 22.4195 62.3359C23.083 62.3359 23.6206 61.7982 23.6206 61.1347V60.2974C24.1282 60.5112 24.7334 60.3538 25.0654 59.8863C25.4496 59.3453 25.3225 58.5954 24.7816 58.2114Z" fill="#48128C"/>
<path d="M44.0833 58.2114C43.5425 58.5955 43.4153 59.3455 43.7995 59.8863C44.0338 60.2163 44.404 60.3921 44.78 60.3921C44.9373 60.3921 45.0946 60.358 45.2441 60.2947V61.1346C45.2441 61.7981 45.7818 62.3358 46.4453 62.3358C47.1088 62.3358 47.6465 61.7981 47.6465 61.1346V60.2973C48.154 60.5111 48.7592 60.3537 49.0913 59.8862C49.4753 59.3452 49.3481 58.5953 48.8075 58.2113L47.1409 57.0277C46.7241 56.7321 46.1665 56.7321 45.7498 57.0277L44.0833 58.2114Z" fill="#48128C"/>
<path d="M67.5049 59.8863C67.7392 60.2162 68.1093 60.3921 68.4854 60.3921C68.6427 60.3921 68.7999 60.358 68.9495 60.2947V61.1347C68.9495 61.7982 69.4872 62.3359 70.1507 62.3359C70.8142 62.3359 71.3519 61.7982 71.3519 61.1347V60.2974C71.8594 60.5112 72.4646 60.3538 72.7966 59.8863C73.1807 59.3453 73.0535 58.5954 72.5128 58.2114L70.8462 57.0278C70.4295 56.7322 69.8719 56.7322 69.4551 57.0278L67.7887 58.2114C67.248 58.5954 67.1208 59.3455 67.5049 59.8863Z" fill="#48128C"/>
</g>
<defs>
<clipPath id="clip0">
<rect width="82" height="82" fill="white" transform="translate(0 0.600586)"/>
</clipPath>
</defs>
</svg>
