<svg width="79" height="80" viewBox="0 0 79 80" fill="none" xmlns="http://www.w3.org/2000/svg">
<g clip-path="url(#clip0)">
<path d="M77.1718 78.472H15.371C14.9847 78.472 14.6714 78.093 14.6714 77.6253V73.6759C14.6714 73.2084 14.9846 72.8292 15.371 72.8292H77.1718C77.5581 72.8292 77.8714 73.2082 77.8714 73.6759V77.6253C77.8714 78.0928 77.5583 78.472 77.1718 78.472Z" fill="#FFE6EC"/>
<path d="M62.6605 5.11489C55.4948 5.10124 49.657 11.0236 49.6572 18.3074C49.6573 23.4127 52.5103 27.8406 56.6841 30.0337C56.8891 30.1414 57.0031 30.3702 56.9693 30.6022C56.8394 31.4946 56.4123 33.6223 55.1821 34.9063C54.8853 35.216 55.3677 36.7149 55.3677 36.7149C57.498 36.3134 59.5209 34.6082 62.1365 32.8172C64.7521 31.0262 62.4036 32.5023 62.6321 32.5016H62.6357C69.8036 32.5016 75.6143 25.5932 75.6143 18.3073C75.6142 11.0298 69.8169 5.12854 62.6605 5.11489Z" fill="#FFE6EC"/>
<path d="M33.5884 60.4149H20.5829C17.3181 60.4149 14.6714 57.0289 14.6714 52.8522V25.5109C14.6714 16.7397 20.2295 9.62915 27.0857 9.62915C33.9419 9.62915 39.5 16.7397 39.5 25.5109V52.8522C39.4999 57.0289 36.8533 60.4149 33.5884 60.4149Z" fill="#FFE6EC"/>
<path d="M44.0141 72.8292H10.1571V46.6013C10.1571 46.1276 10.4765 45.7435 10.8705 45.7435H43.3009C43.6948 45.7435 44.0143 46.1274 44.0143 46.6013V72.8292H44.0141Z" fill="#FFE6EC"/>
<path d="M51.1198 33.1807C50.9437 34.166 50.4469 36.2593 49.271 37.4666C48.7544 37.9967 48.6426 38.7924 48.992 39.4466C49.2926 40.0088 49.8688 40.3464 50.4869 40.3462C50.5903 40.3462 50.6949 40.3368 50.7995 40.3173C56.2907 39.2991 58.6327 37.0577 59.6285 35.2624C69.0181 35.1123 76.6101 27.4274 76.6101 18.0029C76.6101 8.50241 68.8814 0.758865 59.3812 0.740967C59.3705 0.740967 59.36 0.740967 59.3492 0.740967C57.4566 0.740967 55.5946 1.04709 53.8147 1.65086C53.2116 1.85545 52.8885 2.51029 53.0931 3.11328C53.2977 3.71643 53.9533 4.03922 54.5555 3.83493C56.0963 3.31217 57.709 3.04724 59.3492 3.04724H59.377C67.6077 3.06267 74.3038 9.77166 74.3038 18.0029C74.3038 26.2495 67.5948 32.9585 59.3438 32.9585C58.6432 32.9585 58.0121 33.3507 57.6969 33.9821C56.6777 36.024 54.0865 37.1192 51.9672 37.6906C52.8979 36.1111 53.2929 34.2877 53.456 33.1847C53.5702 32.4132 53.1821 31.6547 52.4909 31.2975C47.4958 28.7153 44.3929 23.6212 44.3928 18.0032C44.3928 13.358 46.5056 9.05155 50.1892 6.18888C50.6921 5.79805 50.783 5.07362 50.3921 4.57077C50.0013 4.06776 49.2767 3.97704 48.774 4.36787C44.5241 7.67075 42.0865 12.6407 42.0865 18.0032C42.0865 24.3691 45.5387 30.1523 51.1198 33.1807Z" fill="#48128C"/>
<path d="M19.2672 31.3047C18.6303 31.3047 18.114 31.821 18.114 32.4579V34.4024C18.114 35.0393 18.6303 35.5556 19.2672 35.5556C19.9041 35.5556 20.4204 35.0393 20.4204 34.4024V32.4579C20.4204 31.821 19.9041 31.3047 19.2672 31.3047Z" fill="#48128C"/>
<path d="M28.1451 31.3047C27.5082 31.3047 26.9919 31.821 26.9919 32.4579V34.4024C26.9919 35.0393 27.5082 35.5556 28.1451 35.5556C28.7819 35.5556 29.2984 35.0393 29.2984 34.4024V32.4579C29.2982 31.821 28.7819 31.3047 28.1451 31.3047Z" fill="#48128C"/>
<path d="M24.39 39.9046C24.2177 40.0891 23.9838 40.1907 23.7315 40.1907C23.4703 40.1907 23.2221 40.0774 23.0506 39.8801C22.6332 39.3993 21.9048 39.3481 21.4238 39.7656C20.943 40.1831 20.8918 40.9115 21.3093 41.3923C21.9191 42.0944 22.8018 42.4969 23.7313 42.4969C24.6161 42.4969 25.4703 42.1262 26.0746 41.4797C26.5096 41.0143 26.4849 40.2846 26.0197 39.8498C25.5548 39.4149 24.8251 39.4397 24.39 39.9046Z" fill="#48128C"/>
<path d="M77.0009 71.4966H45.0227V46.6662C45.0227 45.5635 44.1257 44.6664 43.0229 44.6664H40.6523V35.8091C41.0501 35.2353 41.284 34.5396 41.284 33.7898V33.7593C41.284 33.0097 41.0501 32.314 40.6523 31.74V25.1572C40.6523 15.8132 33.0504 8.21112 23.7062 8.21112C14.3621 8.21112 6.76005 15.8132 6.76005 25.1572V31.7402C6.36228 32.314 6.12836 33.0097 6.12836 33.7594V33.79C6.12836 34.5396 6.36228 35.2353 6.76005 35.8091V44.6665H4.38959C3.28683 44.6665 2.38975 45.5636 2.38975 46.6664V54.2212C2.38975 54.8582 2.90603 55.3744 3.54296 55.3744C4.1799 55.3744 4.69618 54.8582 4.69618 54.2212V46.9728H42.7166V71.4968H4.69603V59.4422C4.69603 58.8052 4.17975 58.2889 3.54281 58.2889C2.90587 58.2889 2.3896 58.8052 2.3896 59.4422V71.4968H1.99876C0.896773 71.4966 0 72.3935 0 73.4958V77.4614C0 78.5637 0.896773 79.4603 1.99907 79.4603H77.0009C78.1032 79.4603 79 78.5636 79 77.4614V73.4958C79 72.3935 78.1032 71.4966 77.0009 71.4966ZM9.06648 25.1572C9.06648 17.0847 15.6338 10.5174 23.7063 10.5174C31.7788 10.5174 38.3462 17.0847 38.3462 25.1572V30.26C38.146 30.2248 37.9404 30.2055 37.7304 30.2055H37.3017V28.6377C37.3017 27.9829 36.7324 27.4482 36.0808 27.4865C28.769 27.9158 24.7307 23.6221 24.5582 23.4345C24.3102 23.1646 23.8995 23.0128 23.5347 23.0579C23.1749 23.1023 22.8924 23.4067 22.6463 23.6448C22.5056 23.7811 22.3595 23.9119 22.2107 24.0392C21.0777 25.0082 19.7684 25.7763 18.3922 26.3435C16.1628 27.2626 13.7352 27.6271 11.3316 27.4863C10.9997 27.4669 10.6693 27.5967 10.4374 27.8346C10.1773 28.1015 10.1106 28.5019 10.1106 28.8628V30.2054H9.68228C9.47213 30.2054 9.26661 30.2248 9.06648 30.2598V25.1572ZM8.43479 33.7898V33.7593C8.43479 33.0713 8.99443 32.5116 9.68228 32.5116H10.1106V35.0372H9.68228C8.99427 35.0373 8.43479 34.4777 8.43479 33.7898ZM9.06648 44.6664V37.2891C9.26661 37.3243 9.47229 37.3436 9.68228 37.3436H10.2041C10.5252 40.1248 11.6863 42.6536 13.4303 44.6664H9.06648ZM30.6548 44.6664H16.7625C14.1239 42.6017 12.422 39.3933 12.4172 35.792V31.3586C12.4172 31.357 12.417 31.3556 12.417 31.3541V29.8216C18.2336 29.802 22.0913 27.1636 23.7062 25.79C25.3209 27.1637 29.1783 29.802 34.9955 29.8216V31.3586V35.7766C34.9955 39.3828 33.295 42.5983 30.6548 44.6664ZM38.3462 44.6664H33.9825C35.7264 42.6536 36.8873 40.1248 37.2082 37.3436H37.7302C37.9404 37.3436 38.1459 37.3242 38.346 37.2891V44.6664H38.3462ZM38.9777 33.7898C38.9777 34.4777 38.4181 35.0373 37.7302 35.0373H37.3016V32.5118H37.7302C38.4181 32.5118 38.9777 33.0714 38.9777 33.7594V33.7898ZM76.6937 77.1541H2.30628V73.803H76.6937V77.1541Z" fill="#48128C"/>
<path d="M27.4699 59.2346C27.4699 56.6896 25.3994 54.619 22.8543 54.619C20.3093 54.619 18.2387 56.6895 18.2387 59.2346C18.2387 61.7797 20.3092 63.8502 22.8543 63.8502C25.3994 63.8502 27.4699 61.7797 27.4699 59.2346ZM20.5451 59.2346C20.5451 57.9612 21.581 56.9252 22.8545 56.9252C24.1279 56.9252 25.1638 57.9612 25.1638 59.2346C25.1638 60.508 24.1279 61.544 22.8545 61.544C21.581 61.544 20.5451 60.508 20.5451 59.2346Z" fill="#48128C"/>
<path d="M51.6662 13.4657H67.0304C67.6674 13.4657 68.1836 12.9494 68.1836 12.3125C68.1836 11.6755 67.6674 11.1592 67.0304 11.1592H51.6662C51.0292 11.1592 50.5129 11.6755 50.5129 12.3125C50.5129 12.9495 51.0292 13.4657 51.6662 13.4657Z" fill="#48128C"/>
<path d="M68.1835 17.1759C68.1835 16.5389 67.6672 16.0226 67.0303 16.0226H51.666C51.0291 16.0226 50.5128 16.5389 50.5128 17.1759C50.5128 17.8128 51.0291 18.3291 51.666 18.3291H67.0303C67.6674 18.3291 68.1835 17.8128 68.1835 17.1759Z" fill="#48128C"/>
<path d="M51.6662 20.8863C51.0292 20.8863 50.5129 21.4026 50.5129 22.0395C50.5129 22.6764 51.0292 23.1927 51.6662 23.1927H60.8843C61.5213 23.1927 62.0375 22.6764 62.0375 22.0395C62.0375 21.4026 61.5213 20.8863 60.8843 20.8863H51.6662Z" fill="#48128C"/>
</g>
<defs>
<clipPath id="clip0">
<rect width="79" height="79" fill="white" transform="translate(0 0.600586)"/>
</clipPath>
</defs>
</svg>
