<svg width="76" height="77" viewBox="0 0 76 77" fill="none" xmlns="http://www.w3.org/2000/svg">
<g clip-path="url(#clip0)">
<path d="M33.3664 7.6006C32.0405 7.6006 30.8447 5.64968 30 6.60059C29.1554 5.64968 27.9598 7.6006 26.6338 7.6006C24.0747 7.6006 22 9.81072 22 12.537C22 17.1327 30 22.6006 30 22.6006C30 22.6006 38 17.1326 38 12.537C38.0002 9.81072 35.9256 7.6006 33.3664 7.6006Z" fill="#FFE6EC"/>
<path d="M19.4235 50.6262L19.4519 50.6505L19.4747 50.6295L19.4235 50.6262Z" fill="#F25353"/>
<path d="M70 22.6006C66.5 22.1006 42.5 46.6006 42.5 46.6006C40.4516 48.4893 35.2599 52.6817 35.2599 52.6817C35.2599 52.6817 32.0532 56.7345 30.0428 55.011C28.0325 53.2874 29.7629 54.771 29.7629 54.771C29.7629 54.771 17.2247 66.332 15.726 67.714C14.2272 69.096 15.2041 71.6006 17.2418 71.6006C19.2795 71.6006 40.5997 71.6006 40.5997 71.6006C43.4098 71.6006 36.4156 69.218 41.5 67.1006C46.5844 64.9832 56.8216 50.9172 60.5 49.6006C64.1784 48.2839 64.2413 53.5125 64.7146 55.5824C65.1879 57.6523 66.5 67.1006 67.4019 71.6003C67.6922 73.0483 73.1834 71.6003 73.1834 71.6003C73.1834 71.6003 72.2417 57.8511 74.1592 49.3792C74.2555 48.9538 74.4154 48.2922 74.4154 48.2922C75.8587 42.1725 73.5 23.1005 70 22.6006Z" fill="#FFE6EC"/>
<path d="M75.6424 30.9275C76.8111 23.6179 75.0932 16.2683 70.8052 10.2325C70.5582 9.88505 70.1737 9.66031 69.7496 9.61593C69.3255 9.5711 68.9028 9.71152 68.5891 10.0004L55.6937 21.8797C55.0906 22.4351 55.0521 23.3743 55.6076 23.9775C56.163 24.5808 57.1023 24.6189 57.7054 24.0636L69.3194 13.365C71.2966 16.5791 72.5055 20.1477 72.8929 23.8402C72.2833 22.6526 71.5882 21.5017 70.8052 20.3994C70.5582 20.052 70.1737 19.8272 69.7496 19.7828C69.3255 19.7377 68.9028 19.8784 68.5891 20.1673L36.7188 49.5257C34.4932 51.5756 31.6015 52.7046 28.5758 52.7046C25.7105 52.7046 22.9338 51.6781 20.7578 49.8142L20.4171 49.5224C19.8458 49.0328 18.9986 49.0481 18.4454 49.558L7.6935 59.4628H4.21191C3.42697 59.4628 3.13054 58.8595 3.05825 58.6746C2.98611 58.4898 2.79552 57.8453 3.37279 57.3133L19.506 42.4511C22.1066 44.4276 25.2946 45.5072 28.5758 45.5072C32.3489 45.5072 35.9552 44.0992 38.7304 41.5427L48.4906 32.5517C49.0937 31.9963 49.1321 31.0571 48.5767 30.4538C48.0211 29.8506 47.0819 29.8121 46.4788 30.3679L36.7186 39.3589C34.4931 41.4088 31.6014 42.5378 28.5758 42.5378C25.7105 42.5378 22.934 41.5114 20.7575 39.6472L20.6451 39.551C20.3895 39.2226 20.0021 39.0101 19.5723 38.9814L19.5225 38.9781C18.9928 38.9409 18.4947 39.1916 18.202 39.6155L1.36087 55.1298C0.076593 56.3126 -0.34289 58.128 0.292272 59.7546C0.927287 61.3812 2.46584 62.4321 4.21191 62.4321H4.47019L1.36087 65.2964C0.076593 66.4794 -0.34289 68.2949 0.292272 69.9214C0.927435 71.5478 2.46584 72.5987 4.21191 72.5987H49.5576C50.3775 72.5987 51.0422 71.9339 51.0422 71.1141C51.0422 70.2942 50.3775 69.6294 49.5576 69.6294H41.368C41.8728 69.2432 42.3533 68.8232 42.8038 68.3698L59.9577 51.104C60.4254 50.6333 61.0853 50.4611 61.7232 50.6437C62.361 50.8261 62.8302 51.3211 62.9784 51.9679L66.249 71.4452C66.4035 72.1202 67.004 72.5986 67.6963 72.5986H72.2987C73.1187 72.5986 73.7834 71.9337 73.7834 71.1139L74.971 44.2664L75.2431 43.113C76.162 39.22 76.227 35.2231 75.491 31.3804C75.5636 31.242 75.6164 31.0903 75.6424 30.9275ZM72.3534 42.4312L72.0415 43.7528C72.0151 43.8644 72.0017 43.9788 72.0017 44.0937L70.8141 69.6295H68.8796L65.8729 51.3056C65.4798 49.5883 64.2337 48.2736 62.5399 47.7891C60.8456 47.3047 59.0933 47.7616 57.8515 49.0113L40.6975 66.2771C38.5806 68.4076 35.6442 69.6294 32.641 69.6294H4.21191C3.42697 69.6294 3.13054 69.0261 3.05825 68.8413C2.98611 68.6565 2.79552 68.0119 3.37279 67.4799L19.506 52.6179C22.1065 54.5942 25.2946 55.6738 28.5758 55.6738C32.3489 55.6738 35.9552 54.266 38.7304 51.7096L69.3187 23.5324C72.7727 29.1633 73.8812 35.9583 72.3534 42.4312Z" fill="#48128C"/>
<path d="M52.3216 28.4901C52.712 28.4901 53.0951 28.3315 53.3712 28.0537C53.6473 27.7776 53.8063 27.396 53.8063 27.0041C53.8063 26.6138 53.6474 26.2306 53.3712 25.9545C53.0951 25.6786 52.712 25.5195 52.3216 25.5195C51.9312 25.5195 51.5481 25.6783 51.272 25.9545C50.9959 26.2306 50.8369 26.6138 50.8369 27.0041C50.8369 27.3962 50.9957 27.7776 51.272 28.0537C51.5481 28.3315 51.9312 28.4901 52.3216 28.4901Z" fill="#48128C"/>
<path d="M54.9289 69.6295H54.9218C54.1018 69.6295 53.4407 70.2944 53.4407 71.1142C53.4407 71.934 54.1089 72.5989 54.9289 72.5989C55.7489 72.5989 56.4136 71.934 56.4136 71.1142C56.4136 70.2944 55.7489 69.6295 54.9289 69.6295Z" fill="#48128C"/>
<path d="M20.1631 23.1182C23.0223 25.8232 25.842 27.7107 25.9606 27.7897C26.2099 27.9556 26.4968 28.0387 26.7837 28.0387C27.0706 28.0387 27.3576 27.9556 27.6068 27.7897C27.7254 27.7107 30.5453 25.8233 33.4043 23.1182C37.4286 19.3111 39.469 15.8472 39.469 12.8226C39.469 8.29007 35.8927 4.60229 31.4966 4.60229C29.7968 4.60229 28.1413 5.17066 26.7836 6.19428C25.4257 5.17066 23.7703 4.60229 22.0705 4.60229C17.6746 4.60229 14.0981 8.28992 14.0981 12.8226C14.0983 15.8475 16.1388 19.3114 20.1631 23.1182ZM22.0708 7.57178C23.4489 7.57178 24.7329 8.14801 25.6865 9.19435C25.9678 9.50295 26.3662 9.679 26.7837 9.679C27.2013 9.679 27.5997 9.5031 27.881 9.19435C28.8345 8.14801 30.1188 7.57178 31.4966 7.57178C34.2553 7.57178 36.4997 9.92733 36.4997 12.8227C36.4997 16.9328 30.1059 22.3652 26.783 24.7479C23.4595 22.3677 17.0675 16.9401 17.0675 12.8227C17.0676 9.92733 19.3121 7.57178 22.0708 7.57178Z" fill="#48128C"/>
</g>
<defs>
<clipPath id="clip0">
<rect width="76" height="76" fill="white" transform="translate(0 0.600586)"/>
</clipPath>
</defs>
</svg>
